<svg width="145" height="20" viewBox="0 0 145 20" fill="none" xmlns="http://www.w3.org/2000/svg">
<path d="M10.5 16.0737L16.989 20L15.267 12.6L21 7.62105L13.4505 6.97895L10.5 0L7.5495 6.97895L0 7.62105L5.733 12.6L4.011 20L10.5 16.0737Z" fill="#FEC400"/>
<path d="M41.5 16.0737L47.989 20L46.267 12.6L52 7.62105L44.4505 6.97895L41.5 0L38.5495 6.97895L31 7.62105L36.733 12.6L35.011 20L41.5 16.0737Z" fill="#FEC400"/>
<path d="M72.5 16.0737L78.989 20L77.267 12.6L83 7.62105L75.4505 6.97895L72.5 0L69.5495 6.97895L62 7.62105L67.733 12.6L66.011 20L72.5 16.0737Z" fill="#FEC400"/>
<path d="M103.5 16.0737L109.989 20L108.267 12.6L114 7.62105L106.45 6.97895L103.5 0L100.549 6.97895L93 7.62105L98.733 12.6L97.011 20L103.5 16.0737Z" fill="#FEC400"/>
<path d="M134.5 16.0737L140.989 20L139.267 12.6L145 7.62105L137.45 6.97895L134.5 0L131.549 6.97895L124 7.62105L129.733 12.6L128.011 20L134.5 16.0737Z" fill="#FEC400"/>
</svg>
