<svg width="77" height="76" viewBox="0 0 77 76" fill="none" xmlns="http://www.w3.org/2000/svg">
<rect width="77" height="76" rx="26" fill="#960018" fill-opacity="0.3"/>
<path d="M54.0165 53.2605C54.0165 53.3565 54.0546 53.4486 54.1225 53.5165C54.1904 53.5844 54.2825 53.6225 54.3785 53.6225H55.5176C55.5698 53.6225 55.6215 53.6123 55.6697 53.5923C55.7179 53.5723 55.7617 53.543 55.7986 53.5061C55.8355 53.4692 55.8648 53.4254 55.8847 53.3772C55.9047 53.329 55.915 53.2773 55.915 53.2252V29.7278C55.9152 29.6332 55.9387 29.5403 55.9834 29.457C56.0282 29.3736 56.0929 29.3024 56.172 29.2494C56.2511 29.1964 56.3421 29.1632 56.4374 29.1527C56.5326 29.1422 56.6291 29.1547 56.7185 29.1891L57.0982 29.3392C57.2261 29.3917 57.3355 29.481 57.4125 29.5958C57.4896 29.7106 57.5308 29.8456 57.5309 29.9839V53.1457C57.5309 53.2768 57.583 53.4026 57.6758 53.4954C57.7685 53.5881 57.8943 53.6402 58.0254 53.6402H59.606C59.8355 53.6402 60.0557 53.7314 60.2179 53.8937C60.3802 54.0559 60.4714 54.2761 60.4714 54.5056V54.7616C60.4714 54.8764 60.4258 54.9865 60.3447 55.0676C60.2635 55.1487 60.1535 55.1943 60.0387 55.1943H17.4944C17.4307 55.1946 17.3678 55.2089 17.3102 55.2363C17.2525 55.2636 17.2013 55.3034 17.1602 55.3529C17.1191 55.4024 17.089 55.4604 17.072 55.523C17.055 55.5855 17.0515 55.6511 17.0617 55.7153C17.2148 56.6395 17.0588 57.2753 16.5937 57.6227C16.4796 57.7092 16.3436 57.7609 16.201 57.7719C16.0585 57.7828 15.915 57.7527 15.7866 57.6849C15.6582 57.617 15.5501 57.5141 15.4743 57.3877C15.3985 57.2613 15.358 57.1164 15.3575 56.9692C15.3457 43.871 15.3428 31.173 15.3486 18.8754C15.3478 18.7689 15.3733 18.6638 15.423 18.5696C15.4727 18.4754 15.5449 18.395 15.6332 18.3355C15.7216 18.276 15.8233 18.2393 15.9292 18.2288C16.0352 18.2182 16.1422 18.234 16.2405 18.2749L16.6114 18.4162C16.755 18.4767 16.8775 18.5777 16.9639 18.7064C17.0503 18.8352 17.0966 18.986 17.097 19.1403V53.181C17.097 53.2402 17.1087 53.2987 17.1313 53.3534C17.154 53.408 17.1871 53.4576 17.2289 53.4995C17.2708 53.5413 17.3204 53.5744 17.375 53.5971C17.4297 53.6197 17.4882 53.6314 17.5474 53.6314H18.298C18.4151 53.6314 18.5274 53.5848 18.6102 53.502C18.693 53.4192 18.7395 53.3069 18.7395 53.1898V49.7195C18.7396 49.5641 18.7757 49.4117 18.8449 49.275C18.914 49.1384 19.0141 49.0213 19.1368 48.9337L31.773 39.7855C31.8902 39.7011 32.0285 39.6506 32.1725 39.6396C32.3166 39.6287 32.4609 39.6576 32.5896 39.7233C32.7182 39.7891 32.8263 39.889 32.9019 40.0121C32.9775 40.1352 33.0177 40.2768 33.018 40.4213V53.2252C33.018 53.2785 33.0286 53.3313 33.049 53.3806C33.0694 53.4299 33.0993 53.4747 33.137 53.5124C33.1747 53.5501 33.2195 53.58 33.2688 53.6004C33.3181 53.6209 33.3709 53.6314 33.4242 53.6314H35.0225C35.1279 53.6314 35.229 53.5895 35.3035 53.515C35.378 53.4405 35.4199 53.3394 35.4199 53.234V37.3218C35.4198 37.1943 35.4507 37.0686 35.51 36.9558C35.5693 36.843 35.6551 36.7465 35.7598 36.6749C35.8645 36.6034 35.985 36.5589 36.1105 36.5454C36.236 36.532 36.3627 36.5499 36.4795 36.5977L43.7468 39.5206C43.8632 39.5666 43.989 39.5826 44.1125 39.5672C44.236 39.5517 44.3533 39.5053 44.4533 39.4323L52.6301 33.516C52.7605 33.4217 52.9143 33.3653 53.0747 33.3528C53.2351 33.3404 53.3958 33.3725 53.5392 33.4455C53.6825 33.5186 53.8029 33.6297 53.8871 33.7668C53.9713 33.9039 54.0161 34.0615 54.0165 34.2224V53.2605ZM52.1798 53.6225C52.257 53.6225 52.3312 53.5918 52.3858 53.5372C52.4405 53.4825 52.4712 53.4084 52.4712 53.3311V36.2799C52.4712 36.2265 52.4566 36.1741 52.4289 36.1285C52.4011 36.0828 52.3614 36.0457 52.314 36.0211C52.2667 35.9965 52.2134 35.9854 52.1602 35.9889C52.1069 35.9925 52.0556 36.0107 52.012 36.0414L45.2921 40.8981C45.2539 40.925 45.2227 40.9607 45.2012 41.0022C45.1797 41.0437 45.1685 41.0898 45.1685 41.1365V53.3311C45.1685 53.4084 45.1992 53.4825 45.2539 53.5372C45.3085 53.5918 45.3826 53.6225 45.4599 53.6225H52.1798ZM43.2788 53.6225C43.3183 53.6225 43.3573 53.6148 43.3937 53.5997C43.4302 53.5846 43.4633 53.5625 43.4911 53.5346C43.519 53.5067 43.5411 53.4736 43.5562 53.4372C43.5713 53.4008 43.5791 53.3617 43.5791 53.3223V41.4456C43.5801 41.3853 43.563 41.3261 43.5299 41.2757C43.4968 41.2253 43.4493 41.186 43.3936 41.163L37.5127 38.8053C37.4673 38.7866 37.4181 38.7792 37.3693 38.7839C37.3204 38.7885 37.2735 38.8051 37.2325 38.8321C37.1916 38.8591 37.1579 38.8957 37.1344 38.9388C37.1108 38.9818 37.0982 39.03 37.0976 39.0791V53.3223C37.0976 53.4019 37.1293 53.4783 37.1856 53.5346C37.2419 53.5909 37.3182 53.6225 37.3979 53.6225H43.2788ZM31.1372 53.6314C31.2192 53.6314 31.2978 53.5988 31.3557 53.5408C31.4137 53.4829 31.4463 53.4043 31.4463 53.3223V42.6818C31.4479 42.6237 31.4332 42.5662 31.4037 42.5161C31.3742 42.466 31.3311 42.4252 31.2794 42.3984C31.2278 42.3717 31.1696 42.3601 31.1117 42.3649C31.0537 42.3697 30.9983 42.3908 30.9518 42.4257L26.2717 45.8166C26.2333 45.8453 26.2022 45.8827 26.1807 45.9256C26.1593 45.9685 26.1481 46.0158 26.1481 46.0638V53.3223C26.1481 53.4043 26.1806 53.4829 26.2386 53.5408C26.2966 53.5988 26.3752 53.6314 26.4571 53.6314H31.1372ZM20.9206 49.6489C20.7458 49.7713 20.6032 49.9348 20.5048 50.1254C20.4065 50.316 20.3552 50.5282 20.3554 50.7439V53.2782C20.3554 53.3695 20.3926 53.4571 20.4589 53.5217C20.5251 53.5863 20.615 53.6225 20.7086 53.6225H24.2584C24.3521 53.6225 24.4419 53.5853 24.5082 53.5191C24.5744 53.4528 24.6116 53.363 24.6116 53.2693V47.4325C24.6104 47.389 24.5973 47.3466 24.5738 47.31C24.5502 47.2734 24.517 47.2439 24.4779 47.2248C24.4388 47.2057 24.3952 47.1977 24.3518 47.2016C24.3084 47.2055 24.267 47.2212 24.2319 47.2471L20.9206 49.6489Z" fill="#960018"/>
<path d="M19.8072 44.7926C19.7379 44.8426 19.6586 44.8771 19.5747 44.8936C19.4908 44.9101 19.4044 44.9082 19.3213 44.888C19.2382 44.8679 19.1605 44.83 19.0935 44.7769C19.0264 44.7238 18.9717 44.6569 18.933 44.5806L18.8271 44.3775C18.7243 44.1805 18.6962 43.9527 18.7481 43.7355C18.7999 43.5183 18.9283 43.3263 19.1096 43.1943L35.3574 31.4323C35.5447 31.2995 35.7616 31.2153 35.9883 31.1875C36.215 31.1598 36.4444 31.1893 36.6554 31.2734L43.1545 33.8871C43.2964 33.9421 43.4512 33.9546 43.6001 33.9233C43.7491 33.8919 43.8857 33.818 43.9934 33.7105L54.7222 22.9817C54.7694 22.9351 54.8054 22.8784 54.8278 22.8158C54.8501 22.7532 54.8582 22.6862 54.8515 22.6195C54.8447 22.5529 54.8233 22.4882 54.7887 22.4303C54.7542 22.3723 54.7073 22.3224 54.6515 22.2842C53.7155 21.6484 53.1386 20.9302 52.9208 20.1296C52.8949 20.0405 52.8903 19.9466 52.9074 19.8553C52.9245 19.7641 52.9627 19.6778 53.0192 19.6034C53.0756 19.529 53.1488 19.4684 53.2328 19.4264C53.3168 19.3844 53.4095 19.3621 53.5036 19.3613H60.7003C60.8712 19.3613 61.0352 19.4292 61.1561 19.5501C61.277 19.671 61.3449 19.835 61.3449 20.0059V27.132C61.3451 27.2719 61.3088 27.4092 61.2395 27.5308C61.1703 27.6524 61.0705 27.7541 60.9497 27.826C60.829 27.8979 60.6914 27.9376 60.5502 27.9414C60.409 27.9451 60.2691 27.9127 60.144 27.8472C59.6377 27.5764 59.1697 27.1496 58.74 26.5668C58.6378 26.4306 58.4866 26.3396 58.3183 26.3132C58.1501 26.2868 57.9782 26.3271 57.8393 26.4256L44.8058 35.8563C44.6733 35.9536 44.5177 36.0153 44.3538 36.0354C44.19 36.0555 44.0233 36.0334 43.8698 35.9711L36.8673 33.1631C36.6722 33.0846 36.4597 33.0572 36.2498 33.0834C36.0398 33.1097 35.8391 33.1887 35.6664 33.3132L19.8072 44.7926ZM51.0576 29.3396C51.1379 29.4322 51.2513 29.4897 51.3735 29.4996C51.4957 29.5095 51.6169 29.471 51.7111 29.3925C54.5956 27.026 56.5707 25.466 57.6362 24.7125C57.9187 24.5123 58.428 24.6271 59.1638 25.0569C59.2694 25.1187 59.3894 25.1512 59.5117 25.1513C59.6341 25.1513 59.7545 25.1189 59.8609 25.0572C59.9674 24.9954 60.0561 24.9067 60.1181 24.7997C60.1802 24.6927 60.2135 24.5713 60.2146 24.4476V21.6572C60.2146 21.3387 60.0872 21.0332 59.8603 20.808C59.6334 20.5828 59.3257 20.4563 59.0049 20.4563H56.0556C55.9352 20.4548 55.8171 20.4895 55.7167 20.5559C55.6163 20.6223 55.5382 20.7174 55.4925 20.8288C55.4468 20.9402 55.4356 21.0627 55.4604 21.1805C55.4853 21.2983 55.5449 21.406 55.6317 21.4894C56.4205 22.2606 56.4853 23.0318 55.826 23.803C55.1902 24.5624 53.6066 26.1813 51.0753 28.6596C50.9894 28.7437 50.939 28.8577 50.9341 28.9788C50.9292 29.0999 50.9701 29.2193 51.0488 29.3131L51.0576 29.3396Z" fill="#960018"/>
<path d="M51.0595 29.3394L51.0506 29.3129C50.972 29.2191 50.931 29.0998 50.9359 28.9786C50.9409 28.8575 50.9913 28.7435 51.0771 28.6594C53.6085 26.1811 55.192 24.5622 55.8278 23.8028C56.4871 23.0316 56.4224 22.2604 55.6335 21.4892C55.5468 21.4058 55.4871 21.2982 55.4623 21.1803C55.4374 21.0625 55.4486 20.94 55.4943 20.8286C55.54 20.7172 55.6181 20.6221 55.7185 20.5557C55.819 20.4893 55.937 20.4546 56.0574 20.4561H59.0067C59.3276 20.4561 59.6353 20.5826 59.8621 20.8078C60.089 21.0331 60.2165 21.3385 60.2165 21.657V24.4474C60.2153 24.5711 60.182 24.6925 60.12 24.7995C60.0579 24.9065 59.9692 24.9953 59.8628 25.057C59.7564 25.1187 59.6359 25.1511 59.5136 25.1511C59.3912 25.151 59.2713 25.1185 59.1657 25.0567C58.4298 24.6269 57.9206 24.5121 57.638 24.7123C56.5725 25.4658 54.5975 27.0258 51.7129 29.3924C51.6187 29.4709 51.4975 29.5093 51.3753 29.4994C51.2532 29.4895 51.1397 29.432 51.0595 29.3394Z" fill="#960018"/>
</svg>
