<svg width="20" height="16" viewBox="0 0 20 16" fill="none" xmlns="http://www.w3.org/2000/svg">
<path fill-rule="evenodd" clip-rule="evenodd" d="M20 7.787C20 6.582 18.966 5.603 17.696 5.603C17.146 5.603 16.631 5.793 16.216 6.127L16.175 6.151C14.676 5.241 12.689 4.661 10.492 4.583L11.803 1.046L15.078 1.788C15.08 2.77 15.922 3.568 16.958 3.568C17.996 3.568 18.84 2.768 18.84 1.784C18.84 0.8 17.996 0 16.96 0C16.171 0 15.498 0.462 15.219 1.114L11.339 0.235L9.729 4.575C7.436 4.615 5.359 5.203 3.805 6.143C3.3832 5.79372 2.85265 5.60272 2.305 5.603C1.032 5.602 0 6.582 0 7.786C0 8.531 0.405 9.219 1.063 9.62C1.02068 9.83783 0.998581 10.0591 0.997 10.281C0.997 13.435 5.028 16 9.982 16C14.937 16 18.969 13.435 18.969 10.282C18.9677 10.0653 18.9473 9.85133 18.908 9.64C19.582 9.242 20 8.544 20 7.787ZM13.038 10.615C12.256 10.615 11.623 10.015 11.623 9.273C11.623 8.532 12.256 7.931 13.038 7.931C13.82 7.931 14.454 8.531 14.454 9.273C14.454 10.015 13.819 10.615 13.038 10.615ZM13.319 12.904C13.277 12.944 12.262 13.924 9.966 13.924C7.658 13.924 6.736 12.932 6.696 12.889C6.66507 12.8554 6.64145 12.8158 6.62662 12.7726C6.61178 12.7295 6.60607 12.6837 6.60983 12.6382C6.61358 12.5927 6.62674 12.5485 6.64846 12.5084C6.67017 12.4682 6.69998 12.433 6.736 12.405C6.81013 12.3464 6.90346 12.3175 6.99777 12.3239C7.09207 12.3304 7.18057 12.3718 7.246 12.44C7.266 12.462 8.036 13.24 9.966 13.24C11.929 13.24 12.79 12.435 12.799 12.427C12.8677 12.3621 12.9583 12.3254 13.0528 12.3243C13.1473 12.3232 13.2388 12.3577 13.309 12.421C13.3428 12.4512 13.37 12.488 13.389 12.5292C13.4079 12.5704 13.4182 12.615 13.4191 12.6603C13.4201 12.7056 13.4117 12.7507 13.3944 12.7926C13.3772 12.8345 13.3515 12.8724 13.319 12.904ZM5.712 9.273C5.712 8.532 6.345 7.931 7.129 7.931C7.909 7.931 8.544 8.531 8.544 9.273C8.544 10.015 7.909 10.615 7.129 10.615C6.346 10.615 5.712 10.015 5.712 9.273Z" fill="white"/>
</svg>
