<svg width="464" height="337" viewBox="0 0 464 337" fill="none" xmlns="http://www.w3.org/2000/svg">
<path d="M423.546 192.8C418.929 276.365 330.186 300.155 219.657 301.945C51.105 304.674 31.4883 259.814 31.4883 176.157C31.4883 92.4996 68.2326 6.1275 165.661 12.496C211.95 15.522 264.488 79.7922 303.825 101.119C358.157 130.578 427.015 130.027 423.546 192.8Z" fill="#9E1D1D" fill-opacity="0.19"/>
<path opacity="0.42" d="M28.8921 227.804C28.8921 227.804 63.9989 214.973 80.1412 173.13C96.2836 131.287 125.546 96.0523 180.989 93.6856C236.433 91.3188 296.403 94.2276 316.215 69.2912C336.028 44.3548 293.685 43.7848 293.088 87.5356C292.492 131.286 383.738 211.52 388.51 273.824C393.28 336.127 331.675 323.76 255.129 298.718C178.584 273.676 98.6819 323.238 48.8783 304.702C-0.92645 286.166 1.23498 246.517 28.8921 227.804Z" stroke="#FF0000" stroke-miterlimit="10"/>
<path opacity="0.42" d="M36.3452 179.312C47.4639 179.312 56.4775 171.761 56.4775 162.446C56.4775 153.132 47.4639 145.581 36.3452 145.581C25.2264 145.581 16.2129 153.132 16.2129 162.446C16.2129 171.761 25.2264 179.312 36.3452 179.312Z" fill="#FF0000"/>
<path opacity="0.42" d="M54.5157 177.668C64.5518 169.261 64.5517 155.629 54.5157 147.222C44.4796 138.814 28.208 138.814 18.1719 147.222C8.13584 155.629 8.13583 169.261 18.1719 177.668C28.208 186.076 44.4796 186.076 54.5157 177.668Z" stroke="#FF0000" stroke-miterlimit="10"/>
<path opacity="0.42" d="M418.724 192.799C431.692 192.799 442.205 183.992 442.205 173.128C442.205 162.264 431.692 153.457 418.724 153.457C405.755 153.457 395.242 162.264 395.242 173.128C395.242 183.992 405.755 192.799 418.724 192.799Z" fill="#FF0000"/>
<path opacity="0.42" d="M254.722 120.071L248.383 128.502H261.878L254.722 120.071Z" stroke="#FF0000" stroke-miterlimit="10"/>
<path opacity="0.42" d="M165.325 41.5637L156.857 52.8267H174.885L165.325 41.5637Z" fill="#FF0000"/>
<path opacity="0.42" d="M228.789 64.3177C242.313 64.3177 253.276 55.1336 253.276 43.8045C253.276 32.4753 242.313 23.2913 228.789 23.2913C215.266 23.2913 204.303 32.4753 204.303 43.8045C204.303 55.1336 215.266 64.3177 228.789 64.3177Z" fill="#FF0000"/>
<path d="M228.308 41.2638L226.931 39.057C226.047 37.6398 226.701 35.8903 228.393 35.1488C229.546 34.6444 229.992 33.4518 229.39 32.4857L227.33 29.1834C226.727 28.2173 225.304 27.8431 224.151 28.3484L222.357 29.1335C220.667 29.8732 219.289 31.0317 218.414 32.4507L217.89 33.2997C216.986 34.7624 216.99 36.5032 217.901 37.9624L221.751 44.1333L224.321 48.2531L228.171 54.424C229.082 55.8842 230.785 56.8809 232.735 57.0942L233.866 57.2184C235.757 57.4256 237.678 57.1397 239.368 56.4L241.162 55.6149C242.316 55.1104 242.761 53.9178 242.159 52.9517L240.099 49.6494C239.497 48.6833 238.073 48.3091 236.92 48.8144C235.228 49.555 233.14 49.0068 232.256 47.5895L230.879 45.3827L228.308 41.2638Z" fill="white"/>
<path opacity="0.42" d="M407.892 275.174C407.892 277.518 405.622 279.42 402.823 279.42C400.024 279.42 397.754 277.518 397.754 275.174C397.754 272.828 400.024 270.927 402.823 270.927C405.622 270.927 407.892 272.829 407.892 275.174Z" stroke="#FF0000" stroke-miterlimit="10"/>
<path opacity="0.42" d="M104.835 50.5548C110.01 50.5548 114.205 47.0404 114.205 42.7052C114.205 38.37 110.01 34.8556 104.835 34.8556C99.6599 34.8556 95.4648 38.37 95.4648 42.7052C95.4648 47.0404 99.6599 50.5548 104.835 50.5548Z" fill="white"/>
<path opacity="0.42" d="M360.669 159.644C365.844 159.644 370.039 156.13 370.039 151.795C370.039 147.459 365.844 143.945 360.669 143.945C355.494 143.945 351.299 147.459 351.299 151.795C351.299 156.13 355.494 159.644 360.669 159.644Z" stroke="#FF0000" stroke-miterlimit="10"/>
<path opacity="0.42" d="M65.6194 204.373C70.6635 204.373 74.7525 200.948 74.7525 196.722C74.7525 192.497 70.6635 189.071 65.6194 189.071C60.5754 189.071 56.4863 192.497 56.4863 196.722C56.4863 200.948 60.5754 204.373 65.6194 204.373Z" fill="#FF0000"/>
<path opacity="0.42" d="M418.723 186.698C427.669 186.698 434.921 180.623 434.921 173.129C434.921 165.635 427.669 159.559 418.723 159.559C409.777 159.559 402.525 165.635 402.525 173.129C402.525 180.623 409.777 186.698 418.723 186.698Z" stroke="white" stroke-miterlimit="10"/>
<path opacity="0.42" d="M404.956 44.592H292.7C287.904 44.592 284.016 47.8489 284.016 51.8672V108.673C284.016 112.69 287.903 115.948 292.7 115.948H364.29V130.268C364.29 132.665 367.634 133.968 369.823 132.425L393.193 115.948H404.956C409.752 115.948 413.641 112.691 413.641 108.673V51.8672C413.641 47.8489 409.753 44.592 404.956 44.592Z" fill="#FF0000"/>
<path d="M433.389 51.677C433.389 60.1666 430.477 68.0792 425.457 74.724C424.663 75.7907 423.808 76.8311 422.9 77.8278C413.726 87.9175 399.376 94.4136 383.251 94.4136C374.975 94.4136 367.168 92.7087 360.29 89.6748C344.145 82.5754 333.113 68.2191 333.113 51.677C333.113 49.7448 333.259 47.8388 333.562 45.9677C336.829 25.0628 357.838 8.93164 383.251 8.93164C410.938 8.93164 433.389 28.0704 433.389 51.677Z" fill="#303338" fill-opacity="0.67"/>
<path d="M422.9 77.8243C413.727 87.9139 399.376 94.4101 383.252 94.4101C374.975 94.4101 367.169 92.7052 360.291 89.6713C361.23 87.7041 364.111 82.4844 369.214 79.5642C375.581 75.9095 394.93 73.715 408.352 74.6768C416.273 75.2363 420.646 76.7139 422.9 77.8243Z" fill="#FF0000"/>
<path d="M360.67 29.9961L361.195 50.867C361.195 50.867 361.986 72.1889 382.7 71.8112C403.413 71.4335 407.789 45.093 407.789 45.093L404.531 29.1122C404.531 29.1122 380.319 15.576 360.67 29.9961Z" fill="white"/>
<path d="M382.841 66.7948C382.841 66.7948 384.379 74.8648 382.058 77.5044C379.736 80.1431 386.668 89.312 386.668 89.312L402.707 76.9859C402.707 76.9859 401.641 67.9498 401.931 60.0364L382.841 66.7948Z" fill="white"/>
<path d="M360.79 34.7915C360.79 34.7915 366.75 36.381 373.124 35.9132C379.497 35.4446 381.734 33.2903 381.734 33.2903C381.734 33.2903 383.859 34.0396 387.325 34.0396C390.791 34.0396 393.364 32.6345 393.364 32.6345C393.364 32.6345 391.015 36.0068 392.021 40.3163C393.028 44.6258 396.383 45.7493 396.383 45.7493C396.383 45.7493 398.508 41.4398 402.197 41.4398C405.887 41.4398 407.23 44.7185 406.279 49.028C405.328 53.3366 399.401 54.3674 399.401 54.3674L401.928 60.0374C401.928 60.0374 411.477 51.4638 412.596 42.002C413.714 32.541 408.011 29.7301 408.011 29.7301C408.011 29.7301 408.487 22.704 397.291 20.2691C386.094 17.8341 378.714 18.0212 370.328 22.0492C370.328 22.0492 363.283 17.5526 357.356 20.2691C351.429 22.9856 353.107 28.7937 356.014 30.2922C356.014 30.2922 350.311 31.5102 351.541 37.4118C352.77 43.3135 360.991 42.8518 360.991 42.8518L360.79 34.7915Z" fill="#FF0000"/>
<path d="M382.699 71.8108C382.699 71.8108 397.754 68.4735 399.245 60.0364C399.245 60.0364 402.98 72.2698 382.699 76.4228C382.699 76.4228 383.299 72.7883 382.699 71.8108Z" fill="#D9D9D9"/>
<path opacity="0.42" d="M460.219 25.7196C462.308 15.0144 453.642 4.9178 440.863 3.16814C428.085 1.41848 416.032 8.67835 413.944 19.3835C411.855 30.0886 420.521 40.1852 433.3 41.9349C446.078 43.6845 458.131 36.4247 460.219 25.7196Z" fill="#FF0000"/>
<path d="M434.439 27.8372L434.355 26.9235C434.104 25.0263 434.859 22.9524 436.955 20.8444C438.843 18.9821 439.892 17.6112 439.892 16.0304C439.892 14.2381 438.55 13.0437 435.908 13.0088C434.398 13.0088 432.72 13.4302 431.671 14.0982L430.664 11.8844C432.048 11.0416 434.439 10.4794 436.662 10.4794C441.486 10.4794 443.667 12.9747 443.667 15.6448C443.667 18.0343 442.073 19.7559 440.06 21.7589C438.214 23.5863 437.544 25.1321 437.669 26.9244L437.711 27.8381L434.439 27.8372ZM433.517 32.757C433.517 31.4569 434.565 30.5432 436.034 30.5432C437.501 30.5432 438.508 31.4569 438.508 32.757C438.508 33.9871 437.544 34.9358 435.992 34.9358C434.524 34.9358 433.517 33.9871 433.517 32.757Z" fill="white"/>
<path d="M397.221 253.454C397.146 253.653 397.053 253.82 396.941 253.956C394.961 256.36 392.87 258.692 390.665 260.953H390.656C319.024 334.698 134.803 334.698 134.803 334.698V246.68H396.941C396.941 246.68 397.949 251.472 397.221 253.454Z" fill="#0C0F14" fill-opacity="0.86"/>
<path d="M397.221 253.453C397.146 253.653 397.053 253.82 396.941 253.955C394.961 256.359 392.87 258.691 390.665 260.952H390.656L134.803 285.343V253.454H397.221V253.453Z" fill="#303338" fill-opacity="0.67"/>
<path d="M255.131 184.417L242.451 195.678C242.451 195.678 239.852 193.44 236.742 190.012C235.26 188.368 233.663 186.454 232.191 184.382C230.261 181.671 228.528 178.699 227.537 175.717C224.197 165.706 225.564 144.591 225.564 144.591C225.564 144.591 230.97 145.081 232.818 146.803C243.223 156.508 255.131 184.417 255.131 184.417Z" fill="#FF6A76"/>
<path d="M207.463 221.205H116.66L108.368 162.712C107.415 156.018 112.99 149.92 120.834 149.069L126.297 148.472L195.679 140.917L207.463 221.205Z" fill="#303338" fill-opacity="0.67"/>
<path d="M185.292 142.852C185.292 142.852 155.743 150.813 154.142 152.859C152.541 154.906 166.415 191.183 166.415 191.183L163.747 221.206H223.911L226.943 192.556C226.943 192.556 233.383 186.635 233.782 176.855C234.182 167.075 225.559 144.593 225.559 144.593L204.567 142.284L185.292 142.852Z" fill="#FF6A76"/>
<path d="M193.75 86.5014C193.75 86.5014 173.153 79.0828 158.534 96.3934C143.913 113.704 159.055 140.918 159.055 140.918C159.055 140.918 196.361 136.838 206.688 136.003C217.015 135.169 219.104 135.169 219.104 135.169C219.104 135.169 224.424 107.83 213.07 97.7792C201.715 87.7263 193.75 86.5014 193.75 86.5014Z" fill="#0C0F14" fill-opacity="0.86"/>
<path d="M201.413 154.017L184.025 144.032C184.025 144.032 185.455 140.211 185.1 136.39C185.017 135.542 184.85 134.694 184.558 133.89C184.412 133.488 184.234 133.094 184.025 132.71L201.413 131.984C201.413 131.984 201.528 133.164 201.851 134.686C202.112 135.875 202.498 137.274 203.083 138.489C203.5 139.389 204.022 140.185 204.669 140.736C207.331 143 201.413 154.017 201.413 154.017Z" fill="white"/>
<path d="M203.084 138.49C200.85 138.551 191.259 138.674 185.101 136.392C185.018 135.544 184.851 134.695 184.559 133.891C184.559 133.891 196.279 135.089 201.852 134.687C202.113 135.876 202.499 137.275 203.084 138.49Z" fill="#D9D9D9"/>
<path d="M211.194 93.0719L214.092 113.146C214.092 113.146 217.892 133.832 197.967 135.839C178.041 137.847 171.343 118.551 171.343 118.551L168.988 97.2415C168.988 97.2415 190 81.4907 211.194 93.0719Z" fill="white"/>
<path d="M202.111 94.6285C202.111 94.6285 199.505 99.9994 190.931 103.809C183.331 107.186 176.2 108.118 176.2 108.118C176.2 108.118 175.056 113.772 171.207 117.32C171.207 117.32 164.55 106.739 167.267 97.6274C169.985 88.517 184.023 84.1157 196.34 85.0425C208.658 85.9692 213.096 89.7524 214.726 95.7747C216.357 101.797 213.627 109.925 213.627 109.925C213.627 109.925 211.013 96.5021 202.111 94.6285Z" fill="#0C0F14" fill-opacity="0.86"/>
<path d="M168.988 112.894C168.988 112.894 166.616 97.6276 180.672 89.5209C189.825 84.2418 201.343 85.6468 201.343 85.6468C201.343 85.6468 194.076 81.0645 179.766 86.355C165.455 91.6455 164.731 103.608 166.18 112.894H168.988Z" fill="#0C0F14" fill-opacity="0.86"/>
<path d="M137.371 221.206H116.66L108.368 162.713C107.415 156.019 112.99 149.921 120.834 149.069L126.297 148.472L137.371 221.206Z" fill="#303338" fill-opacity="0.67"/>
<path d="M188.424 132.16C178.918 132.16 171.862 126.616 171.547 126.364L172.823 125.202C172.899 125.263 180.612 131.296 190.254 130.493L190.436 132.077C189.754 132.134 189.083 132.16 188.424 132.16Z" fill="#303338" fill-opacity="0.67"/>
<path d="M423.976 253.956H139.085C131.465 253.956 124.206 251.321 119.135 246.713L103.488 232.498C97.4184 226.983 102.251 218.248 111.371 218.248H389.491C399.103 218.248 408.34 221.271 415.254 226.681L431.313 239.246C438.145 244.591 433.473 253.956 423.976 253.956Z" fill="#0C0F14" fill-opacity="0.86"/>
<path d="M294.057 147.956C293.544 148.189 292.739 148.583 291.862 149.021L291.693 148.794C294.298 147.403 298.158 145.23 297.897 144.7C297.506 143.903 295.549 144.319 294.095 144.98C293.256 145.362 291.732 146.121 290.264 146.865L290.157 146.722C292.741 145.354 297.054 142.965 296.779 142.404C296.388 141.608 294.431 142.024 292.977 142.685C292.057 143.104 290.314 143.976 288.722 144.784L288.598 144.617C291.163 143.232 294.506 141.307 294.263 140.811C293.871 140.015 291.915 140.431 290.461 141.092C288.501 141.984 282.809 144.933 282.809 144.933L278.663 146.197C279.558 144.979 282.074 140.483 280.9 140.483C279.726 140.483 276.483 143.621 275.141 146.853C274.136 149.273 274.01 151.431 274.008 152.362L237.682 191.033C237.682 191.033 238.543 192.165 239.842 193.671C243.611 198.038 252.387 198.998 257.454 195.678C261.456 193.056 264.617 189.593 267.71 186.056C273.54 179.39 282.234 161.708 284.277 157.474L292.499 151.018C294.752 149.799 297.625 148.137 297.413 147.706C297.069 147.004 295.341 147.371 294.057 147.956Z" fill="white"/>
<path d="M198.492 227.649C198.492 227.649 202.742 230.272 204.419 233.832C206.096 237.391 195.361 239.684 177.442 234.586C164.403 230.878 186.416 219.5 198.492 227.649Z" fill="#0C0F14" fill-opacity="0.86"/>
<path d="M191.743 133.12H189.342C188.485 133.12 187.791 132.528 187.791 131.798V130.562C187.791 129.832 188.485 129.24 189.342 129.24H191.743C192.6 129.24 193.294 129.832 193.294 130.562V131.18V131.798C193.294 132.528 192.6 133.12 191.743 133.12Z" fill="#0C0F14" fill-opacity="0.86"/>
<path d="M179.254 117.421C180.582 122.984 177.126 128.28 171.534 129.25C165.942 130.22 160.332 126.497 159.005 120.934C157.677 115.37 161.133 110.075 166.725 109.104C172.315 108.135 177.926 111.857 179.254 117.421Z" fill="#303338" fill-opacity="0.67"/>
<path d="M173.62 118.399C174.404 121.68 172.365 124.805 169.067 125.377C165.769 125.95 162.459 123.753 161.675 120.471C160.892 117.19 162.931 114.065 166.229 113.493C169.527 112.921 172.836 115.118 173.62 118.399Z" fill="#0C0F14" fill-opacity="0.86"/>
<path d="M159.007 150.67C159.007 150.67 153.932 151.307 151.873 154.053C143.047 165.823 125.859 201.815 125.859 201.815L142.433 207.957C142.433 207.957 164.223 186.804 166.224 176.741C168.227 166.677 159.007 150.67 159.007 150.67Z" fill="#FF6A76"/>
<path d="M140.869 204.887L174.886 223.423L170.083 232.35C170.083 232.35 139.467 223.139 130.063 217.168C120.659 211.198 125.861 201.816 125.861 201.816C125.861 201.816 131.064 201.305 140.869 204.887Z" fill="white"/>
<path d="M173.885 223.138C173.885 223.138 185.358 222.684 189.493 222.684C193.628 222.684 200.833 228.369 200.032 230.189C199.232 232.008 190.961 226.436 190.961 226.436L190.494 227.175C190.494 227.175 197.831 230.928 198.231 232.349C198.631 233.771 196.964 233.543 194.562 232.69C192.161 231.838 188.559 229.904 188.559 229.904L188.16 230.302C188.16 230.302 195.097 233.884 195.097 235.192C195.097 236.5 190.095 235.021 186.426 232.974L185.96 233.599C185.96 233.599 190.495 235.533 190.828 236.784C191.162 238.035 188.694 237.523 185.96 236.443C183.225 235.362 180.69 235.248 177.155 234.794C173.62 234.339 169.426 232.148 169.426 232.148L173.885 223.138Z" fill="white"/>
<path d="M384.782 171.144L368.469 239.685H247.607L263.827 171.54C264.169 170.1 265.654 169.065 267.378 169.065H382.787C384.074 169.064 385.038 170.069 384.782 171.144Z" fill="#303338" fill-opacity="0.67"/>
<path d="M247.608 239.685L214.405 230.636C213.232 230.316 212.438 229.401 212.438 228.367C212.438 227.05 213.713 225.981 215.286 225.981H250.869L247.608 239.685Z" fill="#0C0F14" fill-opacity="0.86"/>
<path d="M160.48 153.455C160.48 153.455 167.914 171.064 163.409 183.152C163.409 183.152 178.606 169.001 160.48 153.455Z" fill="#FF0000"/>
<path d="M236.742 190.013C235.26 188.369 233.663 186.454 232.191 184.382C235.26 174.284 228.121 151.797 228.121 151.797C243.766 168.505 239.403 184.024 236.742 190.013Z" fill="#FF0000"/>
<path d="M271.1 173.131L368.469 239.685H257.455L271.1 173.131Z" fill="#303338" fill-opacity="0.67"/>
<path d="M329.623 215.547C334.581 213.838 336.947 209.085 334.906 204.93C332.866 200.776 327.192 198.794 322.234 200.503C317.275 202.212 314.91 206.965 316.95 211.12C318.991 215.274 324.664 217.256 329.623 215.547Z" fill="#0C0F14" fill-opacity="0.86"/>
<path d="M184.986 140.015L201.414 154.017C201.414 154.017 198.564 157.394 193.821 157.3C189.078 157.207 186.413 152.156 185.071 149.528C183.729 146.9 180.99 144.033 180.99 144.033L184.986 140.015Z" fill="#FF0000"/>
<path d="M201.412 154.018C201.412 154.018 205.645 156.175 209.782 154.676C213.919 153.178 212.802 150.887 211.348 148.472C209.894 146.057 208.328 141.749 208.328 141.749L203.612 139.471C203.612 139.471 204.448 148.676 201.412 154.018Z" fill="#FF0000"/>
<path d="M226.741 181.061L185.348 184.416C185.348 184.416 194.629 189.992 208.917 188.305C223.206 186.619 226.741 181.061 226.741 181.061Z" fill="#FF0000"/>
<path opacity="0.42" d="M134.22 68.3105H59.366C54.5944 68.3105 50.7266 71.5508 50.7266 75.5481V92.1698C50.7266 96.1672 54.5944 99.4074 59.366 99.4074H122.421L142.86 109.305V99.4074V94.6222V75.5481C142.859 71.5508 138.991 68.3105 134.22 68.3105Z" fill="#303338" fill-opacity="0.67"/>
<path d="M56.4785 75.8291H134.453" stroke="white" stroke-miterlimit="10" stroke-linecap="round" stroke-linejoin="round"/>
<path d="M56.4785 83.8047H134.453" stroke="white" stroke-miterlimit="10" stroke-linecap="round" stroke-linejoin="round"/>
<path d="M56.4785 91.7784H134.453" stroke="white" stroke-miterlimit="10" stroke-linecap="round" stroke-linejoin="round"/>
<path d="M138.505 261.577C140.464 248.01 127.681 250.049 118.938 257.206C110.197 264.363 101.626 260.366 111.323 246.996C121.02 233.625 128.121 229.511 126.777 222.779C125.434 216.046 118.425 218.99 106.299 224.59C94.1723 230.19 105.633 215.571 104.716 201.702C103.801 187.833 87.3624 194.762 85.9806 206.436C84.5988 218.11 90.8211 231.181 82.8434 228.588C74.8656 225.994 70.0407 210.488 62.7862 217.809C55.5317 225.13 83.2629 249.947 82.3309 257.441C81.3989 264.934 61.4482 242.1 55.7164 249.618C49.9846 257.137 74.7831 307.343 96.2513 305.936C123.525 304.149 136.547 275.145 138.505 261.577Z" fill="#FF0000"/>
<path d="M94.3125 208.067C94.3125 208.067 90.8841 223.766 92.2554 243.678C93.6268 263.592 96.7338 313.692 96.7338 313.692" stroke="#FF0000" stroke-miterlimit="10"/>
<path d="M71 227.803C71 227.803 86.7552 243.467 92.4765 246.924C92.4765 246.924 112.825 230.498 116.71 227.803" stroke="#FF0000" stroke-miterlimit="10"/>
<path d="M61.6934 259.167C61.6934 259.167 85.3845 279.132 94.6481 280.457L129.509 260.88" stroke="#FF0000" stroke-miterlimit="10"/>
<path d="M86.9393 298.223C86.9393 298.223 97.2079 279.201 91.6754 268.98C86.1429 258.759 78.2101 264.757 75.7188 272.903C73.2276 281.049 65.1789 281.306 65.1768 268.459C65.1747 255.612 68.0636 250.187 63.6937 245.943C59.3239 241.698 55.9038 246.268 50.2451 254.531C44.5863 262.794 45.1854 248.44 37.4831 239.034C29.7799 229.628 21.7718 240.365 26.7449 249.05C31.7179 257.736 42.739 264.685 35.8206 265.716C28.9021 266.747 17.6212 257.589 16.2571 265.318C14.893 273.046 46.9878 280.555 50.1491 286.146C53.3103 291.738 27.6842 282.842 27.4901 290.166C27.2949 297.489 57.1134 310.345 70.6111 308.431C84.1078 306.517 86.9393 298.223 86.9393 298.223Z" fill="#FF6A76"/>
<path d="M32.832 244.747C32.832 244.747 71.9141 297.355 80.1424 313.693" stroke="#FF0000" stroke-miterlimit="10"/>
<path d="M26.4336 269.719L53.9216 273.823L59.5741 254.019" stroke="#FF0000" stroke-miterlimit="10"/>
<path d="M40.9609 293.345L70.3265 297.603L82.4289 275.271" stroke="#FF0000" stroke-miterlimit="10"/>
<path d="M69.4766 313.693H119.149L114.882 334.696H74.6573L69.4766 313.693Z" fill="#303338" fill-opacity="0.67"/>
<path d="M119.756 319.501H69.327C67.4745 319.501 65.9727 318.243 65.9727 316.691V314.462C65.9727 312.91 67.4745 311.652 69.327 311.652H119.756C121.608 311.652 123.11 312.91 123.11 314.462V316.691C123.11 318.242 121.608 319.501 119.756 319.501Z" fill="#303338" fill-opacity="0.67"/>
<path opacity="0.42" d="M299.305 337.001C318.352 337.001 333.792 324.066 333.792 308.11C333.792 292.154 318.352 279.219 299.305 279.219C280.259 279.219 264.818 292.154 264.818 308.11C264.818 324.066 280.259 337.001 299.305 337.001Z" fill="#303338" fill-opacity="0.67"/>
<path d="M320.974 297.439H277.635C276.449 297.439 275.486 298.245 275.486 299.239V319.246C275.486 320.24 276.449 321.045 277.635 321.045H320.974C322.161 321.045 323.122 320.24 323.122 319.246V299.239C323.122 298.244 322.16 297.439 320.974 297.439ZM321.616 300.325L301.265 311.472C301.093 311.567 300.892 311.615 300.694 311.615C300.519 311.615 300.342 311.578 300.184 311.503L276.477 300.355C275.974 300.118 275.795 299.586 276.077 299.165C276.359 298.744 276.998 298.594 277.497 298.83L300.652 309.718L320.473 298.861C320.954 298.596 321.603 298.71 321.918 299.115C322.235 299.519 322.1 300.061 321.616 300.325Z" fill="white"/>
<path d="M325.925 304.995C332.984 304.995 338.706 300.201 338.706 294.288C338.706 288.375 332.984 283.581 325.925 283.581C318.867 283.581 313.145 288.375 313.145 294.288C313.145 300.201 318.867 304.995 325.925 304.995Z" fill="#FF0000"/>
</svg>
