<svg width="36" height="36" viewBox="0 0 36 36" fill="none" xmlns="http://www.w3.org/2000/svg">
<path d="M23.625 18C22.1794 18 20.7815 17.3545 19.6875 16.1831C18.6237 15.0405 17.974 13.5169 17.8594 11.8941C17.737 10.163 18.2651 8.57109 19.3458 7.41094C20.4265 6.25078 21.9375 5.625 23.625 5.625C25.3005 5.625 26.8158 6.26203 27.893 7.41937C28.9807 8.58797 29.5101 10.177 29.3878 11.8934C29.2704 13.5183 28.6214 15.0412 27.5597 16.1824C26.4684 17.3545 25.0713 18 23.625 18ZM32.8943 30.375H14.3564C14.0583 30.3766 13.7639 30.3098 13.4957 30.1797C13.2276 30.0497 12.9928 29.8598 12.8095 29.6248C12.6151 29.37 12.4808 29.0745 12.4168 28.7605C12.3527 28.4464 12.3606 28.122 12.4397 27.8114C13.0317 25.4341 14.4984 23.4626 16.6809 22.1105C18.618 20.9109 21.0839 20.25 23.625 20.25C26.216 20.25 28.6172 20.8828 30.5655 22.0816C32.753 23.4267 34.2218 25.4095 34.811 27.8156C34.8891 28.1264 34.8961 28.4509 34.8313 28.7647C34.7665 29.0786 34.6317 29.3738 34.4369 29.6283C34.2538 29.8622 34.0196 30.0512 33.7522 30.1806C33.4848 30.31 33.1913 30.3765 32.8943 30.375ZM10.3359 18.2812C7.86162 18.2812 5.68615 15.9806 5.48436 13.1534C5.38451 11.7049 5.83592 10.3655 6.74998 9.3832C7.6542 8.41078 8.92967 7.875 10.3359 7.875C11.7422 7.875 13.0078 8.41359 13.9169 9.39164C14.838 10.3816 15.288 11.7183 15.1826 13.1548C14.9808 15.9813 12.806 18.2812 10.3359 18.2812ZM14.9526 20.4926C13.7158 19.8879 12.1106 19.5855 10.3366 19.5855C8.26521 19.5855 6.25357 20.1255 4.67154 21.1057C2.87787 22.2188 1.67131 23.8395 1.18404 25.7962C1.11274 26.0777 1.10599 26.3716 1.16431 26.6561C1.22264 26.9405 1.34452 27.2081 1.52084 27.4387C1.68815 27.6535 1.90249 27.8271 2.14737 27.946C2.39226 28.065 2.66117 28.1262 2.93342 28.125H10.7381C10.8698 28.125 10.9974 28.0787 11.0985 27.9943C11.1996 27.9099 11.2679 27.7927 11.2915 27.663C11.2992 27.6187 11.309 27.5745 11.3203 27.5309C11.9165 25.136 13.3137 23.1124 15.378 21.6373C15.454 21.5825 15.515 21.5097 15.5557 21.4254C15.5964 21.3411 15.6154 21.248 15.611 21.1545C15.6066 21.061 15.5789 20.9701 15.5305 20.89C15.4821 20.8099 15.4145 20.7431 15.3337 20.6958C15.2233 20.6311 15.0968 20.5629 14.9526 20.4926Z" fill="white"/>
</svg>
