<svg width="77" height="76" viewBox="0 0 77 76" fill="none" xmlns="http://www.w3.org/2000/svg">
<rect width="77" height="76" rx="26" fill="#960018" fill-opacity="0.3"/>
<path fill-rule="evenodd" clip-rule="evenodd" d="M30.7189 18.8411C32.1423 18.8556 33.5175 18.8915 34.832 18.9483L35.9438 18.9975C36.582 19.029 37.1671 19.0666 37.6989 19.1256C38.0535 19.1647 38.3853 19.2136 38.6968 19.2763C39.7884 19.4959 40.6849 19.8989 41.4777 20.6931C43.0023 22.2216 43.0682 24.1308 43.1669 26.912L43.1745 27.1968C43.2252 28.667 43.2379 30.138 43.21 31.6088L43.1897 32.4654L42.2197 32.5007L41.9791 32.5108L41.2447 32.543C41.2826 31.2625 41.2902 29.9816 41.2674 28.7007L41.2295 27.265C41.118 24.0702 41.0243 22.9893 40.0974 22.0582C39.6364 21.5958 39.1172 21.3372 38.3118 21.1751C37.4558 21.0029 36.3592 20.9527 34.7459 20.8836C33.4567 20.8278 32.1018 20.7931 30.7012 20.7789L29.2854 20.7714C27.4645 20.7704 25.641 20.8064 23.8225 20.8824C23.2577 20.9067 22.7537 20.9287 22.3029 20.9546C21.4697 21.0026 20.8137 21.0634 20.2591 21.1751C19.4537 21.3372 18.9345 21.5955 18.4735 22.057C17.5466 22.9896 17.4529 24.0708 17.3414 27.265C17.306 28.191 17.2908 29.154 17.2908 30.1377L17.3034 31.5747C17.311 32.0535 17.3237 32.532 17.3414 33.0104L17.3845 34.1131C17.4326 35.1839 17.4934 35.9601 17.6226 36.5648C17.7771 37.2927 18.0303 37.7722 18.4735 38.2172C18.9345 38.6796 19.4537 38.9382 20.2591 39.1003C21.1151 39.2725 22.2117 39.3227 23.825 39.3918L24.1391 39.4044C24.3974 39.4151 24.6304 39.5271 24.7976 39.7009C24.9673 39.8753 25.0711 40.1122 25.0711 40.3721V43.3495L27.852 40.9713L28.323 40.5727C28.7713 40.1998 29.1664 39.9087 29.6274 39.7324C30.2479 39.4955 30.9367 39.4981 31.8181 39.4813L33.3073 39.4435L34.7459 39.3918L35.4829 39.3587L35.4575 40.3279L35.4474 40.9092V41.3L34.832 41.3271L33.3681 41.3814L31.8586 41.418C30.8228 41.4375 30.5492 41.4558 30.3238 41.5416C30.0934 41.6293 29.8806 41.793 29.1183 42.4424L26.2944 44.8584C26.2108 44.9291 26.1222 44.9922 26.031 45.0473C25.8866 45.1325 25.7321 45.1991 25.5726 45.2448C25.4865 45.2691 25.3978 45.2877 25.3092 45.3C25.0711 45.3331 24.828 45.3211 24.595 45.2653C24.4759 45.2363 24.3569 45.1956 24.2429 45.1435C23.9086 44.9906 23.6275 44.7452 23.4299 44.437C23.3818 44.3613 23.3388 44.2825 23.3008 44.2011C23.2045 43.9933 23.1463 43.7699 23.1311 43.5413L23.126 43.405V41.2994C22.3308 41.264 21.614 41.2265 20.9707 41.1599C20.5782 41.1193 20.2135 41.0675 19.8741 40.9991C18.7825 40.7796 17.886 40.3765 17.0932 39.5823C16.2676 38.7537 15.87 37.8132 15.6648 36.6827C15.5255 35.9267 15.4749 35.0855 15.4369 34.1358L15.3964 33.0786L15.3761 32.3869L15.3584 31.6088L15.3457 30.1377C15.3457 29.1325 15.3609 28.1478 15.3964 27.1956L15.404 26.9231C15.5027 24.1358 15.5686 22.2235 17.0932 20.6919L17.3972 20.4118C18.1139 19.7999 18.9193 19.4668 19.8741 19.2751C20.8897 19.0704 22.1332 19.0174 23.6402 18.953L23.7389 18.9483C24.9141 18.8991 26.0892 18.8657 27.2644 18.848C27.9381 18.8379 28.6118 18.8332 29.2854 18.8335L30.7189 18.8411Z" fill="#960018"/>
<path d="M45.9712 30.6892C44.5502 30.7037 43.1744 30.7398 41.8607 30.7965L40.7476 30.8457C39.6856 30.8981 38.7729 30.9674 37.9933 31.1245C36.9034 31.3441 36.0053 31.747 35.2137 32.5413C33.6391 34.1215 33.6212 36.1086 33.5181 39.045C33.4662 40.5151 33.4542 41.9863 33.4801 43.4569L33.5181 44.9267C33.6148 47.6801 33.6367 49.5981 34.9364 51.1302L35.2137 51.4317C36.005 52.2257 36.9033 52.6291 37.9933 52.8485C39.033 53.0577 40.3088 53.1087 41.8607 53.1753C42.3409 53.1957 42.8292 53.2143 43.3246 53.2295L44.834 53.2661C45.8684 53.2856 46.1425 53.3039 46.3676 53.3897C46.5973 53.4775 46.8117 53.6411 47.5718 54.2906L50.397 56.7066C50.6757 56.9445 51.0175 57.0976 51.381 57.1481C51.7444 57.1986 52.1152 57.1445 52.4485 56.9917C52.7819 56.8387 53.0649 56.5933 53.2627 56.2852C53.4359 56.0155 53.5378 55.7073 53.5603 55.3894L53.5654 55.2532V53.1475C54.8435 53.0907 55.9195 53.0284 56.8186 52.8472C57.9085 52.6276 58.8067 52.2247 59.5982 51.4304C60.9761 50.0476 61.1619 48.3533 61.2558 45.984L61.2938 44.9267C61.3112 44.4369 61.3243 43.947 61.333 43.4569L61.3457 41.9859C61.3457 40.9805 61.3293 39.9959 61.2938 39.0437C61.1907 36.1077 61.1722 34.1212 59.5982 32.54L59.2955 32.26C58.5788 31.6482 57.7721 31.3151 56.8186 31.1232C55.779 30.914 54.5031 30.863 52.9512 30.7965C51.1042 30.7192 49.2546 30.6808 47.406 30.6817L45.9712 30.6892ZM59.388 43.4229C59.3834 43.6797 59.3772 43.9366 59.3702 44.1934C59.3691 44.234 59.3689 44.2746 59.3677 44.3151C59.3625 44.4963 59.3564 44.6775 59.35 44.8586L59.3069 45.9613C59.2016 48.3213 59.0299 49.2505 58.2179 50.0654C58.1806 50.1028 58.1427 50.1392 58.1045 50.174C58.0495 50.2241 57.9932 50.2714 57.9357 50.3164C57.8106 50.4143 57.6787 50.5007 57.5366 50.5769C57.2429 50.7343 56.9054 50.8487 56.4906 50.9362C56.4715 50.9402 56.4518 50.9446 56.4323 50.9485C56.3663 50.9618 56.2988 50.9744 56.2297 50.9863C56.1873 50.9936 56.1442 51.0006 56.1006 51.0075C55.2952 51.1335 54.2785 51.1794 52.8676 51.2399L52.5536 51.2525C52.0325 51.2738 51.6204 51.7006 51.6203 52.2202V55.1977L48.8382 52.8195L48.3684 52.4208C47.9209 52.048 47.5258 51.757 47.0641 51.5806C46.482 51.3583 45.8398 51.3468 45.0323 51.3324C44.9796 51.3315 44.9262 51.3305 44.872 51.3295L43.3841 51.2917C42.8964 51.2767 42.4164 51.26 41.9443 51.2399L40.8274 51.1895C40.1297 51.1547 39.5459 51.1157 39.0431 51.0538C39.0364 51.053 39.0296 51.0521 39.0229 51.0513C39.0119 51.0499 39.0009 51.0486 38.9899 51.0472C38.9832 51.0463 38.9764 51.0452 38.9697 51.0444C38.8156 51.0244 38.6691 51.0017 38.529 50.9766C38.478 50.9674 38.4277 50.9584 38.3783 50.9485C37.5732 50.7864 37.054 50.5282 36.594 50.0666C35.6659 49.1341 35.5741 48.0529 35.462 44.8586C35.4227 43.7464 35.4075 42.6336 35.4138 41.5209C35.4146 41.3907 35.4127 41.2604 35.4138 41.1302C35.4152 40.967 35.4199 40.804 35.4231 40.6409C35.4237 40.6102 35.4234 40.5795 35.424 40.5489L35.4493 39.5796L35.462 39.1131C35.5741 35.9183 35.6661 34.8376 36.594 33.9064C37.055 33.4439 37.5747 33.1854 38.3796 33.0232C39.0986 32.8784 39.9885 32.82 41.2111 32.764C41.4431 32.7533 41.6872 32.7428 41.9443 32.7318C42.0242 32.7284 42.1057 32.725 42.1862 32.7217C42.29 32.7175 42.3943 32.7142 42.4989 32.7103C42.7164 32.702 42.9354 32.6935 43.1562 32.6864C44.0749 32.6568 45.0216 32.637 45.9902 32.6271L47.406 32.6195C49.2272 32.6186 51.0492 32.6544 52.8689 32.7305C53.6358 32.7634 54.2862 32.7923 54.8494 32.8321C55.4695 32.8759 55.9853 32.9331 56.4336 33.0232C56.8663 33.1103 57.2162 33.2254 57.5189 33.3847C57.7795 33.5218 58.0051 33.6916 58.2179 33.9051C59.146 34.8377 59.2378 35.9188 59.35 39.1131C59.3845 40.039 59.4006 41.0021 59.4006 41.9859L59.388 43.4229Z" fill="#960018"/>
</svg>
