<svg width="316" height="320" viewBox="0 0 316 320" fill="none" xmlns="http://www.w3.org/2000/svg">
<path d="M325.851 115.677C325.851 130.974 338.251 143.374 353.548 143.374C368.845 143.374 381.245 130.974 381.245 115.677C381.245 100.38 368.845 87.9796 353.548 87.9796C338.251 87.9796 325.851 100.38 325.851 115.677Z" fill="url(#paint0_linear_132_150)" fill-opacity="0.7"/>
<path d="M244.388 115.677C244.388 130.974 256.788 143.374 272.085 143.374C287.382 143.374 299.783 130.974 299.783 115.677C299.783 100.38 287.382 87.9796 272.085 87.9796C256.788 87.9796 244.388 100.38 244.388 115.677Z" fill="url(#paint1_linear_132_150)" fill-opacity="0.7"/>
<path d="M162.925 115.677C162.925 130.974 175.326 143.374 190.623 143.374C205.919 143.374 218.32 130.974 218.32 115.677C218.32 100.38 205.919 87.9796 190.623 87.9796C175.326 87.9796 162.925 100.38 162.925 115.677Z" fill="url(#paint2_linear_132_150)" fill-opacity="0.7"/>
<path d="M81.4628 115.677C81.4628 130.974 93.8633 143.374 109.16 143.374C124.457 143.374 136.857 130.974 136.857 115.677C136.857 100.38 124.457 87.9796 109.16 87.9796C93.8633 87.9796 81.4628 100.38 81.4628 115.677Z" fill="url(#paint3_linear_132_150)" fill-opacity="0.7"/>
<path d="M0.000213623 115.677C0.000213623 130.974 12.4007 143.374 27.6975 143.374C42.9943 143.374 55.3948 130.974 55.3948 115.677C55.3948 100.38 42.9943 87.9796 27.6975 87.9796C12.4007 87.9796 0.000213623 100.38 0.000213623 115.677Z" fill="url(#paint4_linear_132_150)" fill-opacity="0.7"/>
<path d="M325.851 203.656C325.851 218.953 338.251 231.354 353.548 231.354C368.845 231.354 381.245 218.953 381.245 203.656C381.245 188.36 368.845 175.959 353.548 175.959C338.251 175.959 325.851 188.36 325.851 203.656Z" fill="url(#paint5_linear_132_150)" fill-opacity="0.7"/>
<path d="M244.388 203.656C244.388 218.953 256.788 231.354 272.085 231.354C287.382 231.354 299.783 218.953 299.783 203.656C299.783 188.36 287.382 175.959 272.085 175.959C256.788 175.959 244.388 188.36 244.388 203.656Z" fill="url(#paint6_linear_132_150)" fill-opacity="0.7"/>
<path d="M162.925 203.656C162.925 218.953 175.326 231.354 190.623 231.354C205.919 231.354 218.32 218.953 218.32 203.656C218.32 188.36 205.919 175.959 190.623 175.959C175.326 175.959 162.925 188.36 162.925 203.656Z" fill="url(#paint7_linear_132_150)" fill-opacity="0.7"/>
<path d="M81.4628 203.656C81.4628 218.953 93.8633 231.354 109.16 231.354C124.457 231.354 136.857 218.953 136.857 203.656C136.857 188.36 124.457 175.959 109.16 175.959C93.8633 175.959 81.4628 188.36 81.4628 203.656Z" fill="url(#paint8_linear_132_150)" fill-opacity="0.7"/>
<path d="M0.000213623 203.656C0.000213623 218.953 12.4007 231.354 27.6975 231.354C42.9943 231.354 55.3948 218.953 55.3948 203.656C55.3948 188.36 42.9943 175.959 27.6975 175.959C12.4007 175.959 0.000213623 188.36 0.000213623 203.656Z" fill="url(#paint9_linear_132_150)" fill-opacity="0.7"/>
<path d="M325.851 291.636C325.851 306.933 338.251 319.333 353.548 319.333C368.845 319.333 381.245 306.933 381.245 291.636C381.245 276.339 368.845 263.939 353.548 263.939C338.251 263.939 325.851 276.339 325.851 291.636Z" fill="url(#paint10_linear_132_150)" fill-opacity="0.7"/>
<path d="M244.388 291.636C244.388 306.933 256.788 319.333 272.085 319.333C287.382 319.333 299.783 306.933 299.783 291.636C299.783 276.339 287.382 263.939 272.085 263.939C256.788 263.939 244.388 276.339 244.388 291.636Z" fill="url(#paint11_linear_132_150)" fill-opacity="0.7"/>
<path d="M162.925 291.636C162.925 306.933 175.326 319.333 190.623 319.333C205.919 319.333 218.32 306.933 218.32 291.636C218.32 276.339 205.919 263.939 190.623 263.939C175.326 263.939 162.925 276.339 162.925 291.636Z" fill="url(#paint12_linear_132_150)" fill-opacity="0.7"/>
<path d="M81.4628 291.636C81.4628 306.933 93.8633 319.333 109.16 319.333C124.457 319.333 136.857 306.933 136.857 291.636C136.857 276.339 124.457 263.939 109.16 263.939C93.8633 263.939 81.4628 276.339 81.4628 291.636Z" fill="url(#paint13_linear_132_150)" fill-opacity="0.7"/>
<path d="M0.000213623 291.636C0.000213623 306.933 12.4007 319.333 27.6975 319.333C42.9943 319.333 55.3948 306.933 55.3948 291.636C55.3948 276.339 42.9943 263.939 27.6975 263.939C12.4007 263.939 0.000213623 276.339 0.000213623 291.636Z" fill="url(#paint14_linear_132_150)" fill-opacity="0.7"/>
<path d="M325.851 27.6973C325.851 42.9941 338.251 55.3946 353.548 55.3946C368.845 55.3946 381.245 42.9941 381.245 27.6973C381.245 12.4005 368.845 0 353.548 0C338.251 0 325.851 12.4005 325.851 27.6973Z" fill="url(#paint15_linear_132_150)" fill-opacity="0.7"/>
<path d="M244.388 27.6973C244.388 42.9941 256.788 55.3946 272.085 55.3946C287.382 55.3946 299.783 42.9941 299.783 27.6973C299.783 12.4005 287.382 0 272.085 0C256.788 0 244.388 12.4005 244.388 27.6973Z" fill="url(#paint16_linear_132_150)" fill-opacity="0.7"/>
<path d="M162.925 27.6973C162.925 42.9941 175.326 55.3946 190.623 55.3946C205.919 55.3946 218.32 42.9941 218.32 27.6973C218.32 12.4005 205.919 0 190.623 0C175.326 0 162.925 12.4005 162.925 27.6973Z" fill="url(#paint17_linear_132_150)" fill-opacity="0.7"/>
<path d="M81.4628 27.6973C81.4628 42.9941 93.8633 55.3946 109.16 55.3946C124.457 55.3946 136.857 42.9941 136.857 27.6973C136.857 12.4005 124.457 0 109.16 0C93.8633 0 81.4628 12.4005 81.4628 27.6973Z" fill="url(#paint18_linear_132_150)" fill-opacity="0.7"/>
<path d="M0.000213623 27.6973C0.000213623 42.9941 12.4007 55.3946 27.6975 55.3946C42.9943 55.3946 55.3948 42.9941 55.3948 27.6973C55.3948 12.4005 42.9943 0 27.6975 0C12.4007 0 0.000213623 12.4005 0.000213623 27.6973Z" fill="url(#paint19_linear_132_150)" fill-opacity="0.7"/>
<path d="M353.548 264.438C338.527 264.438 326.351 276.615 326.351 291.636C326.351 306.656 338.527 318.833 353.548 318.833C368.568 318.833 380.745 306.656 380.745 291.636C380.745 276.615 368.568 264.438 353.548 264.438ZM272.085 264.438C257.065 264.439 244.888 276.615 244.888 291.636C244.888 306.656 257.064 318.833 272.085 318.833C287.106 318.833 299.282 306.656 299.282 291.636C299.282 276.615 287.105 264.438 272.085 264.438ZM190.623 264.438C175.603 264.438 163.426 276.615 163.426 291.636C163.426 306.656 175.602 318.833 190.623 318.833C205.644 318.833 217.82 306.656 217.82 291.636C217.82 276.615 205.643 264.439 190.623 264.438ZM109.16 264.438C94.1396 264.438 81.9631 276.615 81.9629 291.636C81.9629 306.656 94.1395 318.833 109.16 318.833C124.181 318.833 136.357 306.656 136.357 291.636C136.357 276.615 124.181 264.439 109.16 264.438ZM27.6973 264.438C12.6768 264.439 0.500165 276.615 0.5 291.636C0.5 306.656 12.6767 318.833 27.6973 318.833C42.7179 318.833 54.8945 306.656 54.8945 291.636C54.8944 276.615 42.7178 264.438 27.6973 264.438ZM353.548 176.459C338.527 176.459 326.351 188.636 326.351 203.656C326.351 218.677 338.527 230.854 353.548 230.854C368.568 230.854 380.745 218.677 380.745 203.656C380.745 188.636 368.568 176.459 353.548 176.459ZM272.085 176.459C257.065 176.459 244.888 188.636 244.888 203.656C244.888 218.677 257.064 230.853 272.085 230.854C287.106 230.854 299.282 218.677 299.282 203.656C299.282 188.636 287.106 176.459 272.085 176.459ZM190.623 176.459C175.602 176.459 163.426 188.636 163.426 203.656C163.426 218.677 175.602 230.854 190.623 230.854C205.644 230.853 217.82 218.677 217.82 203.656C217.82 188.636 205.643 176.459 190.623 176.459ZM109.16 176.459C94.1396 176.459 81.963 188.636 81.9629 203.656C81.9629 218.677 94.1395 230.854 109.16 230.854C124.181 230.853 136.357 218.677 136.357 203.656C136.357 188.636 124.181 176.459 109.16 176.459ZM27.6973 176.459C12.6768 176.459 0.500115 188.636 0.5 203.656C0.5 218.677 12.6767 230.853 27.6973 230.854C42.7179 230.854 54.8945 218.677 54.8945 203.656C54.8944 188.636 42.7178 176.459 27.6973 176.459ZM353.548 88.4795C338.527 88.4795 326.351 100.656 326.351 115.677C326.351 130.697 338.527 142.874 353.548 142.874C368.568 142.874 380.745 130.697 380.745 115.677C380.745 100.656 368.568 88.4795 353.548 88.4795ZM272.085 88.4795C257.064 88.4796 244.888 100.656 244.888 115.677C244.888 130.697 257.064 142.874 272.085 142.874C287.106 142.874 299.282 130.697 299.282 115.677C299.282 100.656 287.106 88.4795 272.085 88.4795ZM190.623 88.4795C175.602 88.4795 163.426 100.656 163.426 115.677C163.426 130.697 175.602 142.874 190.623 142.874C205.644 142.874 217.82 130.697 217.82 115.677C217.82 100.656 205.643 88.4797 190.623 88.4795ZM109.16 88.4795C94.1396 88.4795 81.9629 100.656 81.9629 115.677C81.9629 130.697 94.1395 142.874 109.16 142.874C124.181 142.874 136.357 130.697 136.357 115.677C136.357 100.656 124.181 88.4795 109.16 88.4795ZM27.6973 88.4795C12.6768 88.4796 0.500058 100.656 0.5 115.677C0.5 130.697 12.6767 142.874 27.6973 142.874C42.7179 142.874 54.8945 130.697 54.8945 115.677C54.8945 100.656 42.7179 88.4795 27.6973 88.4795ZM353.548 0.5C338.527 0.5 326.351 12.6766 326.351 27.6973C326.351 42.7179 338.527 54.8945 353.548 54.8945C368.568 54.8945 380.745 42.7179 380.745 27.6973C380.745 12.6766 368.568 0.500007 353.548 0.5ZM272.085 0.5C257.064 0.500157 244.888 12.6767 244.888 27.6973C244.888 42.7178 257.064 54.8944 272.085 54.8945C287.106 54.8945 299.282 42.7179 299.282 27.6973C299.282 12.6766 287.106 0.5 272.085 0.5ZM190.623 0.5C175.602 0.5 163.426 12.6766 163.426 27.6973C163.426 42.7179 175.602 54.8945 190.623 54.8945C205.644 54.8943 217.82 42.7178 217.82 27.6973C217.82 12.6768 205.644 0.500206 190.623 0.5ZM109.16 0.5C94.1395 0.5 81.9629 12.6766 81.9629 27.6973C81.9629 42.7179 94.1395 54.8945 109.16 54.8945C124.181 54.8945 136.357 42.7179 136.357 27.6973C136.357 12.6766 124.181 0.500033 109.16 0.5ZM27.6973 0.5C12.6767 0.500132 0.500006 12.6767 0.5 27.6973C0.5 42.7178 12.6767 54.8944 27.6973 54.8945C42.7179 54.8945 54.8945 42.7179 54.8945 27.6973C54.8945 12.6766 42.7179 0.5 27.6973 0.5Z" stroke="url(#paint20_linear_132_150)" stroke-opacity="0.5"/>
<defs>
<linearGradient id="paint0_linear_132_150" x1="278.234" y1="126.556" x2="-57.2864" y2="283.28" gradientUnits="userSpaceOnUse">
<stop stop-color="#FF0000"/>
<stop offset="1" stop-color="#371111" stop-opacity="0"/>
</linearGradient>
<linearGradient id="paint1_linear_132_150" x1="278.234" y1="126.556" x2="-57.2864" y2="283.28" gradientUnits="userSpaceOnUse">
<stop stop-color="#FF0000"/>
<stop offset="1" stop-color="#371111" stop-opacity="0"/>
</linearGradient>
<linearGradient id="paint2_linear_132_150" x1="278.234" y1="126.556" x2="-57.2864" y2="283.28" gradientUnits="userSpaceOnUse">
<stop stop-color="#FF0000"/>
<stop offset="1" stop-color="#371111" stop-opacity="0"/>
</linearGradient>
<linearGradient id="paint3_linear_132_150" x1="278.234" y1="126.556" x2="-57.2864" y2="283.28" gradientUnits="userSpaceOnUse">
<stop stop-color="#FF0000"/>
<stop offset="1" stop-color="#371111" stop-opacity="0"/>
</linearGradient>
<linearGradient id="paint4_linear_132_150" x1="278.234" y1="126.556" x2="-57.2864" y2="283.28" gradientUnits="userSpaceOnUse">
<stop stop-color="#FF0000"/>
<stop offset="1" stop-color="#371111" stop-opacity="0"/>
</linearGradient>
<linearGradient id="paint5_linear_132_150" x1="278.234" y1="126.556" x2="-57.2864" y2="283.28" gradientUnits="userSpaceOnUse">
<stop stop-color="#FF0000"/>
<stop offset="1" stop-color="#371111" stop-opacity="0"/>
</linearGradient>
<linearGradient id="paint6_linear_132_150" x1="278.234" y1="126.556" x2="-57.2864" y2="283.28" gradientUnits="userSpaceOnUse">
<stop stop-color="#FF0000"/>
<stop offset="1" stop-color="#371111" stop-opacity="0"/>
</linearGradient>
<linearGradient id="paint7_linear_132_150" x1="278.234" y1="126.556" x2="-57.2864" y2="283.28" gradientUnits="userSpaceOnUse">
<stop stop-color="#FF0000"/>
<stop offset="1" stop-color="#371111" stop-opacity="0"/>
</linearGradient>
<linearGradient id="paint8_linear_132_150" x1="278.234" y1="126.556" x2="-57.2864" y2="283.28" gradientUnits="userSpaceOnUse">
<stop stop-color="#FF0000"/>
<stop offset="1" stop-color="#371111" stop-opacity="0"/>
</linearGradient>
<linearGradient id="paint9_linear_132_150" x1="278.234" y1="126.556" x2="-57.2864" y2="283.28" gradientUnits="userSpaceOnUse">
<stop stop-color="#FF0000"/>
<stop offset="1" stop-color="#371111" stop-opacity="0"/>
</linearGradient>
<linearGradient id="paint10_linear_132_150" x1="278.234" y1="126.556" x2="-57.2864" y2="283.28" gradientUnits="userSpaceOnUse">
<stop stop-color="#FF0000"/>
<stop offset="1" stop-color="#371111" stop-opacity="0"/>
</linearGradient>
<linearGradient id="paint11_linear_132_150" x1="278.234" y1="126.556" x2="-57.2864" y2="283.28" gradientUnits="userSpaceOnUse">
<stop stop-color="#FF0000"/>
<stop offset="1" stop-color="#371111" stop-opacity="0"/>
</linearGradient>
<linearGradient id="paint12_linear_132_150" x1="278.234" y1="126.556" x2="-57.2864" y2="283.28" gradientUnits="userSpaceOnUse">
<stop stop-color="#FF0000"/>
<stop offset="1" stop-color="#371111" stop-opacity="0"/>
</linearGradient>
<linearGradient id="paint13_linear_132_150" x1="278.234" y1="126.556" x2="-57.2864" y2="283.28" gradientUnits="userSpaceOnUse">
<stop stop-color="#FF0000"/>
<stop offset="1" stop-color="#371111" stop-opacity="0"/>
</linearGradient>
<linearGradient id="paint14_linear_132_150" x1="278.234" y1="126.556" x2="-57.2864" y2="283.28" gradientUnits="userSpaceOnUse">
<stop stop-color="#FF0000"/>
<stop offset="1" stop-color="#371111" stop-opacity="0"/>
</linearGradient>
<linearGradient id="paint15_linear_132_150" x1="278.234" y1="126.556" x2="-57.2864" y2="283.28" gradientUnits="userSpaceOnUse">
<stop stop-color="#FF0000"/>
<stop offset="1" stop-color="#371111" stop-opacity="0"/>
</linearGradient>
<linearGradient id="paint16_linear_132_150" x1="278.234" y1="126.556" x2="-57.2864" y2="283.28" gradientUnits="userSpaceOnUse">
<stop stop-color="#FF0000"/>
<stop offset="1" stop-color="#371111" stop-opacity="0"/>
</linearGradient>
<linearGradient id="paint17_linear_132_150" x1="278.234" y1="126.556" x2="-57.2864" y2="283.28" gradientUnits="userSpaceOnUse">
<stop stop-color="#FF0000"/>
<stop offset="1" stop-color="#371111" stop-opacity="0"/>
</linearGradient>
<linearGradient id="paint18_linear_132_150" x1="278.234" y1="126.556" x2="-57.2864" y2="283.28" gradientUnits="userSpaceOnUse">
<stop stop-color="#FF0000"/>
<stop offset="1" stop-color="#371111" stop-opacity="0"/>
</linearGradient>
<linearGradient id="paint19_linear_132_150" x1="278.234" y1="126.556" x2="-57.2864" y2="283.28" gradientUnits="userSpaceOnUse">
<stop stop-color="#FF0000"/>
<stop offset="1" stop-color="#371111" stop-opacity="0"/>
</linearGradient>
<linearGradient id="paint20_linear_132_150" x1="382.437" y1="0.997917" x2="225.244" y2="188.666" gradientUnits="userSpaceOnUse">
<stop stop-color="white" stop-opacity="0.5"/>
<stop offset="1" stop-color="white" stop-opacity="0.1"/>
</linearGradient>
</defs>
</svg>
