<svg width="202" height="40" viewBox="0 0 202 40" fill="none" xmlns="http://www.w3.org/2000/svg">
<path d="M0 5.67843C0 2.54232 2.54231 0 5.67842 0H34.1415C37.2776 0 39.8199 2.54232 39.8199 5.67843V34.1416C39.8199 37.2777 37.2776 39.82 34.1415 39.82H5.67842C2.54231 39.82 0 37.2777 0 34.1416V5.67843Z" fill="black"/>
<path d="M19.5922 20.8695L23.7213 16.3289L32.2979 23.4186L35.9748 19.2004L28.5238 12.7055H20.1651L3.83293 31.1987L10.4845 31.0925L16.0997 24.8333L22.3603 30.2905L25.8315 26.3082L19.5922 20.8695Z" fill="#FF0000"/>
<path d="M27.7502 12.0311L23.8009 8.58859L20.7607 12.0311H27.7502Z" fill="#FF0000"/>
<path d="M62.2732 18.2689V13.4935H73.162V8.74902H56.1309V30.4556H62.2732V23.0134H71.8591V18.2689H62.2732Z" fill="white"/>
<path fill-rule="evenodd" clip-rule="evenodd" d="M90.8697 8.74902L78.1606 30.4556H103.413L90.8697 8.74902Z" fill="white"/>
<path d="M124.72 20.3168L115.134 8.74902H110.078V30.4556H116.096V18.8878L125.682 30.4556H130.738V8.74902H124.72V20.3168Z" fill="white"/>
<path d="M139.069 30.4556V8.74902H145.212V30.4556H139.069Z" fill="white"/>
<path d="M160.212 30.4556V13.6175H153.542V8.74902H172.993V13.6175H166.355V30.4556H160.212Z" fill="white"/>
<path d="M181.325 30.4556H187.467V21.99H195.843V30.4556H201.985V8.74902H195.843V16.9045H187.467V8.74902H181.325V30.4556Z" fill="white"/>
</svg>
