<svg width="203" height="40" viewBox="0 0 203 40" fill="none" xmlns="http://www.w3.org/2000/svg">
<path d="M0 8.33053C0 3.7297 3.7297 0 8.33053 0H31.4894C36.0902 0 39.8199 3.72971 39.8199 8.33054V31.4895C39.8199 36.0903 36.0902 39.82 31.4894 39.82H8.33052C3.72969 39.82 0 36.0903 0 31.4895V8.33053Z" fill="black"/>
<path d="M20.6114 19.8567L23.4116 16.7773C23.7708 16.3823 24.3771 16.3392 24.7886 16.6794L31.8792 22.5407C32.297 22.8861 32.914 22.8356 33.2702 22.427L35.6499 19.697C36.0128 19.2807 35.9695 18.649 35.5531 18.2861L28.8559 12.4482H20.4972L4.91483 30.0924C4.62724 30.4181 4.86319 30.9303 5.29758 30.9234L10.3799 30.8422C10.6583 30.8378 10.9223 30.7174 11.1083 30.5101L15.7735 25.3098C16.1386 24.9029 16.7629 24.8645 17.175 25.2238L21.9386 29.3761C22.3549 29.739 22.9866 29.6957 23.3495 29.2794L25.5066 26.8047C25.8695 26.3884 25.8262 25.7567 25.4098 25.3938L20.6942 21.2833C20.2717 20.915 20.2343 20.2714 20.6114 19.8567Z" fill="#FF0000"/>
<path d="M28.0823 11.7739L24.882 8.9842C24.4676 8.62296 23.8393 8.66399 23.4754 9.07606L21.0928 11.7739H28.0823Z" fill="#FF0000"/>
<path d="M62.3211 18.5214V13.7452H73.2115V9H56.1777V30.71H62.3211V23.2666H71.9084V18.5214H62.3211Z" fill="#FF0000"/>
<path d="M124.778 20.5696L115.19 9H110.133V30.71H116.152V19.1404L125.739 30.71H130.797V9H124.778V20.5696Z" fill="#FF0000"/>
<path d="M139.129 30.71V9H145.272V30.71H139.129Z" fill="#FF0000"/>
<path d="M160.275 30.71V13.8692H153.604V9H173.058V13.8692H166.419V30.71H160.275Z" fill="#FF0000"/>
<path d="M181.391 30.71H187.534V22.2431H195.912V30.71H202.055V9H195.912V17.1568H187.534V9H181.391V30.71Z" fill="#FF0000"/>
<path fill-rule="evenodd" clip-rule="evenodd" d="M91.122 9.7614C90.9311 9.42483 90.4466 9.42346 90.2537 9.75894L78.6417 29.9568C78.45 30.2901 78.6906 30.706 79.0751 30.706H102.147C102.531 30.706 102.771 30.2926 102.582 29.9592L91.122 9.7614Z" fill="#FF0000"/>
</svg>
