<svg width="77" height="76" viewBox="0 0 77 76" fill="none" xmlns="http://www.w3.org/2000/svg">
<rect width="77" height="76" rx="26" fill="#960018" fill-opacity="0.3"/>
<path d="M53.7386 23.5609C53.6088 23.4903 53.506 23.3788 53.4462 23.2436C53.3864 23.1085 53.3731 22.9574 53.4082 22.8139C53.4433 22.6703 53.5249 22.5425 53.6403 22.4502C53.7557 22.3579 53.8984 22.3064 54.0461 22.3037H59.0658C59.2036 22.3037 59.34 22.3308 59.4673 22.3836C59.5946 22.4363 59.7102 22.5136 59.8077 22.611C59.9051 22.7084 59.9824 22.8241 60.0351 22.9514C60.0878 23.0787 60.1149 23.2151 60.1149 23.3529V27.9927C60.1161 28.1317 60.0751 28.2677 59.9974 28.3829C59.9196 28.4981 59.8088 28.587 59.6795 28.6379C59.5502 28.6888 59.4086 28.6994 59.2732 28.6682C59.1378 28.6369 59.015 28.5654 58.9211 28.463C58.2096 27.6973 57.5101 27.5375 56.8228 27.9837C53.4823 30.1544 50.5911 31.9753 48.1491 33.4466C48.0457 33.5075 47.9232 33.5294 47.8043 33.508C47.6854 33.4867 47.5784 33.4236 47.5031 33.3306C47.4278 33.2376 47.3894 33.121 47.3951 33.0025C47.4008 32.8841 47.4502 32.7718 47.5341 32.6868L54.7878 25.0442C54.8672 24.9602 54.9122 24.8495 54.9139 24.7339C54.9155 24.6184 54.8737 24.5064 54.7968 24.4201C54.4591 24.0342 54.1064 23.7478 53.7386 23.5609Z" fill="#960018"/>
<path d="M17.5978 48.0075L28.008 37.5972C28.3634 37.2422 28.844 37.0407 29.3475 37.0356C29.851 37.0306 30.3375 37.2223 30.7032 37.5701L33.2357 39.9669C33.2844 40.013 33.3417 40.0492 33.4041 40.0732C33.4665 40.0973 33.5329 40.1089 33.5994 40.1072C33.6659 40.1055 33.7311 40.0906 33.7913 40.0634C33.8516 40.0362 33.9056 39.9973 33.9502 39.9488L39.6753 33.9251C39.799 33.7949 39.947 33.6901 40.1108 33.6169C40.2746 33.5436 40.451 33.5033 40.63 33.4983C40.8089 33.4932 40.9869 33.5236 41.1536 33.5875C41.3204 33.6514 41.4727 33.7477 41.6018 33.8709L54.9605 46.5513C54.9952 46.5857 55.0394 46.6089 55.0874 46.6179C55.1354 46.6269 55.185 46.6213 55.2298 46.6019C55.2746 46.5824 55.3126 46.5499 55.3387 46.5087C55.3649 46.4674 55.3781 46.4192 55.3766 46.3704V32.5323C55.3766 32.3596 55.4452 32.1939 55.5673 32.0718C55.6894 31.9497 55.855 31.8811 56.0278 31.8811H56.3986C56.5449 31.8811 56.6852 31.9382 56.7887 32.04C56.8922 32.1418 56.9503 32.2798 56.9503 32.4237C56.9865 38.0374 56.9865 44.7153 56.9503 52.4574C56.9503 53.2473 56.2961 54.001 54.9876 54.7185C54.8744 54.7781 54.7509 54.8121 54.6259 54.818C54.5776 54.818 42.5033 54.815 18.4027 54.809C15.7708 54.809 15.3457 52.8282 15.3457 50.5038C15.3457 36.1591 15.3608 28.7547 15.3909 28.2904C15.5175 26.2192 17.037 25.4775 19.0268 25.4775C30.0369 25.4836 40.0281 25.4866 49.0002 25.4866C49.0961 25.4866 49.1908 25.5075 49.2778 25.5478C49.3648 25.5881 49.442 25.6469 49.5039 25.7201C49.5659 25.7932 49.6112 25.879 49.6367 25.9715C49.6621 26.0639 49.6672 26.1608 49.6514 26.2554V26.2735C49.619 26.4806 49.5127 26.6693 49.3517 26.8053C49.1908 26.9414 48.9859 27.0158 48.7741 27.0151L18.3666 27.0242C17.9995 27.0242 17.6476 27.1699 17.3881 27.4295C17.1285 27.689 16.9828 28.041 16.9828 28.408V47.7452C16.982 47.8168 17.0024 47.887 17.0416 47.9469C17.0807 48.0068 17.1367 48.0538 17.2026 48.0819C17.2684 48.11 17.3411 48.1179 17.4115 48.1047C17.4818 48.0914 17.5467 48.0576 17.5978 48.0075ZM29.6088 38.8092C29.5485 38.7524 29.4683 38.7215 29.3854 38.7232C29.3025 38.7249 29.2236 38.759 29.1657 38.8182L18.9273 49.0566C18.8827 49.1004 18.852 49.1564 18.8391 49.2175C18.8262 49.2787 18.8317 49.3423 18.8549 49.4003C18.8781 49.4584 18.918 49.5083 18.9695 49.5437C19.021 49.5791 19.0819 49.5984 19.1444 49.5993H54.9605C55.023 49.5984 55.0839 49.5791 55.1354 49.5437C55.1869 49.5083 55.2268 49.4584 55.25 49.4003C55.2732 49.3423 55.2787 49.2787 55.2658 49.2175C55.2529 49.1564 55.2222 49.1004 55.1776 49.0566L40.8692 35.4718C40.8089 35.4149 40.7286 35.3841 40.6458 35.3858C40.5629 35.3874 40.484 35.4216 40.426 35.4808L34.9541 41.2512C34.8961 41.3104 34.8636 41.3899 34.8636 41.4728C34.8636 41.5557 34.8961 41.6352 34.9541 41.6944L36.3108 43.042C36.3688 43.1012 36.4013 43.1808 36.4013 43.2636C36.4013 43.3465 36.3688 43.426 36.3108 43.4852L35.6867 44.1455C35.6287 44.2047 35.5499 44.2388 35.467 44.2405C35.3841 44.2422 35.3039 44.2113 35.2435 44.1545L29.6088 38.8092ZM55.3404 52.3941C55.4375 52.2914 55.5025 52.1626 55.5273 52.0234C55.5521 51.8842 55.5355 51.7409 55.4797 51.611C55.4239 51.4811 55.3313 51.3704 55.2133 51.2926C55.0953 51.2148 54.9571 51.1732 54.8158 51.1731H17.5345C17.3899 51.1732 17.2486 51.2167 17.129 51.298C17.0093 51.3792 16.9168 51.4944 16.8632 51.6287C16.8097 51.7631 16.7976 51.9104 16.8286 52.0516C16.8596 52.1929 16.9322 52.3216 17.037 52.4212L17.7063 53.0543C17.8406 53.1819 18.0186 53.2531 18.2038 53.2533H54.2189C54.3171 53.2532 54.4142 53.2331 54.5044 53.1942C54.5946 53.1553 54.6759 53.0985 54.7434 53.0272L55.3404 52.3941Z" fill="#960018"/>
<path d="M26.2174 32.8128C26.2174 33.7051 25.8629 34.5609 25.2319 35.1919C24.6009 35.8229 23.7452 36.1774 22.8528 36.1774C21.9605 36.1774 21.1047 35.8229 20.4737 35.1919C19.8428 34.5609 19.4883 33.7051 19.4883 32.8128C19.4883 31.9205 19.8428 31.0647 20.4737 30.4337C21.1047 29.8027 21.9605 29.4482 22.8528 29.4482C23.7452 29.4482 24.6009 29.8027 25.2319 30.4337C25.8629 31.0647 26.2174 31.9205 26.2174 32.8128ZM24.6979 32.8128C24.6979 32.5693 24.6499 32.3282 24.5568 32.1033C24.4636 31.8783 24.327 31.6739 24.1548 31.5017C23.9827 31.3296 23.7783 31.193 23.5533 31.0998C23.3284 31.0066 23.0873 30.9587 22.8438 30.9587C22.352 30.9587 21.8804 31.154 21.5327 31.5017C21.185 31.8495 20.9897 32.3211 20.9897 32.8128C20.9897 33.3046 21.185 33.7762 21.5327 34.1239C21.8804 34.4716 22.352 34.6669 22.8438 34.6669C23.0873 34.6669 23.3284 34.619 23.5533 34.5258C23.7783 34.4326 23.9827 34.296 24.1548 34.1239C24.327 33.9517 24.4636 33.7473 24.5568 33.5224C24.6499 33.2974 24.6979 33.0563 24.6979 32.8128Z" fill="#960018"/>
</svg>
