<svg width="22" height="36" viewBox="0 0 22 36" fill="none" xmlns="http://www.w3.org/2000/svg">
<path d="M18.3333 0H3.66667C2.69421 0 1.76157 0.379284 1.07394 1.05442C0.386308 1.72955 0 2.64522 0 3.6V32.4C0 33.3548 0.386308 34.2705 1.07394 34.9456C1.76157 35.6207 2.69421 36 3.66667 36H18.3333C19.3058 36 20.2384 35.6207 20.9261 34.9456C21.6137 34.2705 22 33.3548 22 32.4V3.6C22 2.64522 21.6137 1.72955 20.9261 1.05442C20.2384 0.379284 19.3058 0 18.3333 0ZM12.8333 34.2H9.16667V32.4H12.8333V34.2ZM18.3333 30.6H3.66667V5.4H18.3333V30.6Z" fill="white"/>
</svg>
