<svg width="146" height="124" viewBox="0 0 146 124" fill="none" xmlns="http://www.w3.org/2000/svg">
<g clip-path="url(#clip0_132_505)">
<path d="M73 0C92.3607 1.24144e-06 110.93 6.53074 124.62 18.158C127.077 20.2448 129.339 22.4663 131.4 24.8H73C61.3835 24.8 50.2426 28.719 42.0283 35.6953C33.8144 42.6718 29.2 52.1339 29.2 62H73L134.722 28.89C139.304 35.0529 142.573 41.8584 144.375 48.9884L116.8 62H146L145.978 63.541C145.514 79.426 137.882 94.5785 124.62 105.842C110.93 117.469 92.3607 124 73 124C53.6393 124 35.0697 117.469 21.3796 105.842C18.9226 103.755 16.6608 101.534 14.6 99.2H73C84.6165 99.2 95.7574 95.281 103.972 88.3047C111.672 81.764 116.21 73.0385 116.747 63.8436L116.8 62H73L11.2779 95.104C6.696 88.9409 3.43466 82.1348 1.63252 75.0054L29.2 62H0C2.9234e-06 45.5567 7.68946 29.7853 21.3796 18.158C35.0697 6.53077 53.6393 -1.79602e-09 73 0Z" fill="#860D0D"/>
</g>
<defs>
<clipPath id="clip0_132_505">
<rect width="146" height="124" fill="white"/>
</clipPath>
</defs>
</svg>
