<svg width="292" height="55" viewBox="0 0 292 55" fill="none" xmlns="http://www.w3.org/2000/svg">
<g clip-path="url(#clip0_132_510)">
<path d="M240.073 14.3789H250.852L260.885 33.8556L270.951 14.3789H281.731V39.9582H276.666V14.6347L263.581 39.9582H258.223L245.105 14.6347V39.9582H240.073V14.3789Z" fill="#860D0D"/>
<path d="M207.602 30.0187C203.771 30.0187 200.687 26.5472 200.687 22.1988C200.687 17.8869 203.771 14.3789 207.602 14.3789H236.987V20.0794H207.602C206.564 20.0794 205.719 21.0295 205.719 22.1988C205.719 23.4047 206.564 24.3548 207.602 24.3548H230.039C233.87 24.3548 236.987 27.8263 236.987 32.1747C236.987 36.4867 233.87 39.9582 230.039 39.9582H200.687V34.2941H230.039C231.078 34.2941 231.922 33.344 231.922 32.1747C231.922 30.9688 231.078 30.0187 230.039 30.0187H207.602Z" fill="#860D0D"/>
<path d="M189.198 14.3789C194.068 14.3789 198.03 18.8369 198.03 24.3548C198.03 29.8361 194.068 34.2941 189.198 34.2941H166.469V39.9582H161.437V14.3789H189.198ZM189.165 28.5937C191.276 28.5937 192.964 26.6934 192.964 24.3548C192.964 21.9796 191.276 20.0794 189.165 20.0794H166.469V28.5937H189.165Z" fill="#860D0D"/>
<path d="M134.363 20.0794C130.856 20.0794 128.032 23.2585 128.032 27.1685C128.032 31.115 130.856 34.2941 134.363 34.2941H153.13V29.8361H133.875V24.1721H158.196V39.9582H134.363C128.063 39.9582 122.998 34.2576 122.998 27.1685C122.998 20.116 128.063 14.3789 134.363 14.3789H158.196V20.0794H134.363Z" fill="#860D0D"/>
<path d="M90.4102 39.9582V14.3789H95.4429V34.2941H120.866V39.9582H90.4102Z" fill="#860D0D"/>
<path d="M291.158 12.9493C291.158 14.7852 289.835 16.2737 288.204 16.2737C286.573 16.2737 285.25 14.7852 285.25 12.9493C285.25 11.1133 286.573 9.625 288.204 9.625C289.835 9.625 291.158 11.1133 291.158 12.9493Z" fill="#860D0D"/>
<path d="M39.0962 13.75H51.3138C58.0613 13.75 63.5313 19.9062 63.5313 27.5C63.5313 35.0938 58.0613 41.25 51.3138 41.25H43.9832V38.5H51.3138C56.7119 38.5 61.0878 33.5752 61.0878 27.5C61.0878 21.4248 56.7119 16.5 51.3138 16.5H39.0962V30.25H51.3138C52.6633 30.25 53.7573 29.0188 53.7573 27.5C53.7573 25.9812 52.6633 24.75 51.3138 24.75H43.9832V22H51.3138C54.0127 22 56.2008 24.4625 56.2008 27.5C56.2008 30.5375 54.0127 33 51.3138 33H39.0962V46.75H51.3138C60.7604 46.75 68.4184 38.1315 68.4184 27.5C68.4184 16.8685 60.7604 8.25 51.3138 8.25H43.9832V5.5H51.3138C62.1099 5.5 70.8619 15.3497 70.8619 27.5C70.8619 39.6503 62.1099 49.5 51.3138 49.5H39.0962V55H51.3138C64.8089 55 75.7489 42.6878 75.7489 27.5C75.7489 12.3122 64.8089 0 51.3138 0H39.0962V13.75Z" fill="#860D0D"/>
<path d="M24.4351 0C10.94 0 0 12.3122 0 27.5C0 42.6878 10.94 55 24.4351 55H36.6527V41.25H24.4351C17.6876 41.25 12.2176 35.0938 12.2176 27.5C12.2176 19.9062 17.6876 13.75 24.4351 13.75H31.7657V16.5H24.4351C19.0371 16.5 14.6611 21.4248 14.6611 27.5C14.6611 33.5752 19.0371 38.5 24.4351 38.5H36.6527V24.75H24.4351C23.0856 24.75 21.9916 25.9812 21.9916 27.5C21.9916 29.0188 23.0856 30.25 24.4351 30.25H31.7657V33H24.4351C21.7362 33 19.5481 30.5375 19.5481 27.5C19.5481 24.4625 21.7362 22 24.4351 22H36.6527V8.25H24.4351C14.9885 8.25 7.33054 16.8685 7.33054 27.5C7.33054 38.1315 14.9885 46.75 24.4351 46.75H31.7657V49.5H24.4351C13.639 49.5 4.88703 39.6503 4.88703 27.5C4.88703 15.3497 13.639 5.5 24.4351 5.5H36.6527V0H24.4351Z" fill="#860D0D"/>
</g>
<defs>
<clipPath id="clip0_132_510">
<rect width="292" height="55" fill="white"/>
</clipPath>
</defs>
</svg>
