<svg width="127" height="118" viewBox="0 0 127 118" fill="none" xmlns="http://www.w3.org/2000/svg">
<path d="M9.75812 50.5403C10.9593 45.1412 15.7536 41.3 21.2908 41.3H35.4418L23.6279 94.4H14.7274C7.1695 94.4 1.55526 87.4094 3.19481 80.0403L9.75812 50.5403Z" fill="#860D0D"/>
<path d="M116.028 23.6H62.8683L61.0714 31.9733C59.9039 37.4134 55.0903 41.3 49.52 41.3H35.4419L42.2987 9.32832C43.4656 3.88733 48.2798 0 53.8507 0H106.477C113.998 0 119.605 6.9264 118.029 14.2719L116.028 23.6Z" fill="#860D0D"/>
<path d="M91.4479 108.672C90.281 114.113 85.4671 118 79.8959 118H33.1765C25.6553 118 20.049 111.074 21.6245 103.728L23.6253 94.3999H94.5089L91.4479 108.672Z" fill="#860D0D"/>
<path d="M114.084 50.1499C121.77 50.1499 127.409 57.3644 125.545 64.8117L120.377 85.4617C119.062 90.7148 114.336 94.3999 108.915 94.3999H94.5114L99.68 73.7499H41.3486L44.4096 59.4781C45.5768 54.0371 50.3907 50.1499 55.9616 50.1499H114.084Z" fill="#860D0D"/>
</svg>
