<svg width="174" height="124" viewBox="0 0 174 124" fill="none" xmlns="http://www.w3.org/2000/svg">
<g clip-path="url(#clip0_132_507)">
<path d="M133.607 0C155.915 1.99726e-06 174 18.0429 174 40.3C174 62.5571 155.915 80.6 133.607 80.6H107.148L150.648 124H97.9235L48.9617 75.1508C45.588 71.7848 43.5 67.1364 43.5 62C43.5 51.7275 51.8467 43.4 62.1429 43.4H133.607C135.323 43.4 136.714 42.0121 136.714 40.3C136.714 38.5879 135.323 37.2 133.607 37.2H62.1429C48.4146 37.2 37.2857 48.3033 37.2857 62C37.2857 69.4093 40.5426 76.0576 45.7061 80.6H45.6362L89.1362 124H62.1429C27.8223 124 0 96.2417 0 62C0 27.7584 27.8223 0 62.1429 0H133.607Z" fill="#860D0D"/>
<path d="M174 86.8V124H159.435L122.149 86.8H174Z" fill="#860D0D"/>
</g>
<defs>
<clipPath id="clip0_132_507">
<rect width="174" height="124" fill="white"/>
</clipPath>
</defs>
</svg>
