<svg width="77" height="76" viewBox="0 0 77 76" fill="none" xmlns="http://www.w3.org/2000/svg">
<rect width="77" height="76" rx="26" fill="#960018" fill-opacity="0.3"/>
<path d="M44.1163 28.6962L53.6804 19.1321C53.8919 18.9206 54.0284 18.6415 54.0687 18.338C54.2334 17.0263 55.1598 15.944 56.8479 15.0911C57.004 15.0114 57.1816 14.983 57.3556 15.0099C57.5297 15.0368 57.6916 15.1177 57.8184 15.2411L60.7653 18.0733C60.991 18.2888 61.1374 18.5742 61.1806 18.8833C61.2239 19.1924 61.1615 19.507 61.0035 19.7762C60.2977 20.9937 59.3448 21.7937 58.1449 22.176C57.8838 22.2573 57.645 22.3994 57.4479 22.5907L48.0955 31.9519C47.954 32.0938 47.8747 32.2842 47.8749 32.4813V36.3546C47.875 36.5975 47.7801 36.8316 47.6102 37.0075L25.1292 60.3885C24.8479 60.683 24.4825 60.8835 24.0829 60.9625C23.6834 61.0415 23.2692 60.995 22.897 60.8296C19.9383 59.5179 17.5973 57.6151 15.8739 55.1211C15.5916 54.7146 15.4607 54.2223 15.5043 53.7303C15.5478 53.2383 15.763 52.7781 16.1121 52.4301L39.4225 29.1197C39.5745 28.9674 39.7808 28.8818 39.996 28.8815H43.6663C43.8357 28.8811 43.9974 28.8145 44.1163 28.6962ZM59.4707 19.4188C59.5119 19.3765 59.5444 19.3264 59.5662 19.2715C59.5881 19.2166 59.5989 19.1579 59.5981 19.0988C59.5972 19.0397 59.5848 18.9814 59.5614 18.9271C59.538 18.8728 59.5042 18.8237 59.4618 18.7825L57.3492 16.7281C57.3069 16.6869 57.2568 16.6544 57.2019 16.6326C57.147 16.6107 57.0883 16.5999 57.0292 16.6007C56.9702 16.6015 56.9118 16.614 56.8575 16.6373C56.8033 16.6607 56.7541 16.6945 56.7129 16.7369L55.7779 17.6983C55.7367 17.7407 55.7043 17.7908 55.6824 17.8457C55.6606 17.9006 55.6498 17.9593 55.6506 18.0183C55.6514 18.0774 55.6639 18.1358 55.6873 18.1901C55.7106 18.2443 55.7445 18.2935 55.7869 18.3347L57.8994 20.3891C57.9418 20.4303 57.9919 20.4628 58.0468 20.4846C58.1017 20.5065 58.1603 20.5173 58.2194 20.5165C58.2785 20.5157 58.3369 20.5032 58.3911 20.4798C58.4454 20.4565 58.4945 20.4226 58.5357 20.3803L59.4707 19.4188ZM56.4083 21.4916C56.4548 21.4448 56.4916 21.3892 56.5167 21.3281C56.5418 21.267 56.5546 21.2015 56.5543 21.1355C56.5541 21.0695 56.5409 21.0041 56.5154 20.9432C56.4899 20.8822 56.4526 20.8269 56.4058 20.7804L55.5669 19.9473C55.52 19.9008 55.4645 19.8639 55.4034 19.8389C55.3423 19.8138 55.2768 19.801 55.2108 19.8013C55.1447 19.8015 55.0794 19.8147 55.0184 19.8402C54.9575 19.8657 54.9022 19.9029 54.8557 19.9498L47.9175 26.9366C47.871 26.9835 47.8341 27.0391 47.8091 27.1002C47.784 27.1613 47.7712 27.2267 47.7715 27.2928C47.7717 27.3588 47.7849 27.4242 47.8104 27.4851C47.8359 27.546 47.8731 27.6013 47.92 27.6479L48.7589 28.4809C48.8057 28.5275 48.8613 28.5643 48.9224 28.5894C48.9835 28.6144 49.049 28.6272 49.115 28.627C49.1811 28.6268 49.2464 28.6135 49.3073 28.5881C49.3683 28.5626 49.4236 28.5253 49.4701 28.4785L56.4083 21.4916ZM46.1655 28.6128C46.0993 28.6744 46.0551 28.7581 46.0351 28.8592C46.0152 28.9602 46.02 29.0766 46.0492 29.2017C46.0785 29.3267 46.1316 29.458 46.2056 29.5881C46.2796 29.7182 46.373 29.8444 46.4804 29.9597C46.5879 30.0749 46.7073 30.1769 46.8319 30.2598C46.9565 30.3427 47.0838 30.4048 47.2065 30.4427C47.3293 30.4806 47.445 30.4935 47.5472 30.4807C47.6494 30.4678 47.736 30.4295 47.8021 30.3678C47.8682 30.3062 47.9125 30.2225 47.9325 30.1214C47.9524 30.0204 47.9476 29.904 47.9184 29.7789C47.8891 29.6539 47.836 29.5225 47.762 29.3925C47.688 29.2624 47.5946 29.1362 47.4871 29.0209C47.3797 28.9057 47.2602 28.8037 47.1356 28.7208C47.011 28.6379 46.8838 28.5757 46.761 28.5378C46.6383 28.4999 46.5225 28.4871 46.4203 28.4999C46.3182 28.5128 46.2315 28.5511 46.1655 28.6128ZM45.8897 34.1841L39.7842 40.5367C39.6908 40.6358 39.5769 40.7168 39.4489 40.7749C38.4902 41.1925 37.3432 41.4278 36.008 41.4808C35.8442 41.4885 35.6837 41.4334 35.5591 41.3269C35.4345 41.2203 35.3552 41.0702 35.3374 40.9073C35.208 39.6309 35.3286 38.5486 35.6992 37.6604C35.74 37.5554 35.8029 37.4565 35.8844 37.3692L42.2988 30.6902C42.3421 30.6453 42.3713 30.5886 42.3826 30.5272C42.3939 30.4659 42.3869 30.4025 42.3624 30.3451C42.3379 30.2877 42.2971 30.2388 42.245 30.2044C42.1929 30.1701 42.1318 30.1518 42.0694 30.152H41.24C40.9828 30.152 40.728 30.2026 40.4904 30.301C40.2527 30.3994 40.0367 30.5436 39.8548 30.7255L17.1885 53.383C17.049 53.5234 16.9643 53.7091 16.9497 53.9065C16.9352 54.1039 16.9917 54.3 17.1091 54.4594C18.5149 56.3593 20.3942 57.9621 22.747 59.2679C23.0153 59.417 23.3255 59.4728 23.6289 59.4265C23.9323 59.3802 24.2118 59.2344 24.4234 59.0121L46.128 36.434C46.3884 36.1619 46.5338 35.8016 46.5338 35.4282V34.4488C46.533 34.3732 46.51 34.2992 46.4676 34.2364C46.4253 34.1735 46.3656 34.1247 46.2963 34.0962C46.227 34.0677 46.1512 34.0609 46.0787 34.0765C46.0062 34.0922 45.9404 34.1297 45.8897 34.1841ZM44.206 30.4989C44.1062 30.6042 44.1042 30.794 44.2004 31.0268C44.2966 31.2595 44.4832 31.516 44.7191 31.7399C44.8359 31.8508 44.9613 31.9503 45.0882 32.0328C45.2151 32.1153 45.3409 32.1791 45.4585 32.2206C45.576 32.2622 45.6831 32.2806 45.7735 32.2749C45.8639 32.2692 45.9358 32.2394 45.9853 32.1873C46.0851 32.0821 46.0872 31.8922 45.991 31.6595C45.8947 31.4268 45.7082 31.1702 45.4722 30.9464C45.3554 30.8355 45.23 30.736 45.1031 30.6535C44.9763 30.571 44.8504 30.5072 44.7329 30.4656C44.6153 30.4241 44.5083 30.4056 44.4179 30.4113C44.3275 30.4171 44.2555 30.4468 44.206 30.4989ZM44.2487 33.2401L43.3487 32.3666C43.2748 32.2956 43.1759 32.2566 43.0734 32.2583C42.9709 32.2599 42.8732 32.302 42.8017 32.3754L37.8784 37.4133C37.413 37.8905 37.039 38.4187 36.8388 38.882C36.6386 39.3452 36.6286 39.7056 36.8109 39.8838L36.8814 39.9632C37.0645 40.1405 37.4247 40.1212 37.883 39.9095C38.3412 39.6977 38.86 39.3108 39.3254 38.8339L44.2487 33.7871C44.3209 33.7144 44.3614 33.6161 44.3614 33.5136C44.3614 33.4111 44.3209 33.3128 44.2487 33.2401Z" fill="#960018"/>
<path d="M39.7573 49.2714L37.5339 53.1094C37.4883 53.1881 37.4587 53.275 37.4468 53.3652C37.435 53.4554 37.4411 53.547 37.4649 53.6348C37.4887 53.7226 37.5297 53.8048 37.5854 53.8766C37.6412 53.9485 37.7106 54.0086 37.7898 54.0535C38.125 54.2417 38.5191 54.3093 38.9721 54.2564C39.0691 54.2432 39.1678 54.2613 39.2537 54.3082C39.3396 54.3551 39.4083 54.4282 39.4497 54.517C39.4911 54.6057 39.5031 54.7053 39.4838 54.8013C39.4645 54.8973 39.4151 54.9846 39.3426 55.0505C36.5369 57.7444 34.6253 59.5208 33.6077 60.3795C33.4489 60.5148 33.3165 60.5678 33.2106 60.5384C33.1257 60.5126 33.0478 60.4679 32.9822 60.4072C32.9166 60.3466 32.8649 60.2714 32.8306 60.1868C32.7963 60.1023 32.7801 60.0103 32.7833 59.9172C32.7865 59.8241 32.8088 59.732 32.8489 59.6472C33.4371 58.4532 33.8782 57.5062 34.1723 56.8062C34.2369 56.6545 34.2475 56.4855 34.2025 56.3279C34.1575 56.1703 34.0596 56.0338 33.9253 55.9416C33.6606 55.7651 33.3371 55.6975 32.9548 55.7387C32.8656 55.7498 32.7753 55.7329 32.6962 55.6904C32.6171 55.6478 32.5532 55.5817 32.5135 55.5011C32.4737 55.4206 32.46 55.3297 32.4742 55.241C32.4885 55.1524 32.53 55.0703 32.593 55.0063L38.8044 48.5479C38.9048 48.4348 39.0441 48.3638 39.1946 48.3491C39.345 48.3343 39.4955 48.3769 39.6159 48.4683C39.7363 48.5597 39.8178 48.6933 39.844 48.8421C39.8702 48.991 39.8393 49.1443 39.7573 49.2714ZM37.181 51.5036L34.3135 54.4858C34.2546 54.5445 34.2142 54.6192 34.1975 54.7007C34.1808 54.7822 34.1884 54.8668 34.2195 54.9439C34.2505 55.0211 34.3036 55.0874 34.3721 55.1346C34.4406 55.1818 34.5215 55.2078 34.6047 55.2093C34.9635 55.221 35.2723 55.2916 35.5311 55.421C35.57 55.4412 35.6043 55.4692 35.6319 55.5032C35.6595 55.5373 35.6797 55.5767 35.6913 55.619C35.7029 55.6612 35.7056 55.7055 35.6993 55.7488C35.693 55.7922 35.6778 55.8338 35.6546 55.871L34.8517 57.265C34.8222 57.3184 34.8114 57.3801 34.821 57.4403C34.8306 57.5005 34.8601 57.5558 34.9047 57.5974C34.9493 57.6389 35.0065 57.6644 35.0672 57.6697C35.128 57.6751 35.1888 57.6599 35.2399 57.6268C35.8987 57.1797 36.6634 56.4063 37.5339 55.3063C37.5756 55.2528 37.6018 55.1886 37.6095 55.1212C37.6172 55.0537 37.6062 54.9857 37.5776 54.9249C37.5491 54.8641 37.5042 54.813 37.4481 54.7775C37.392 54.742 37.3269 54.7234 37.2604 54.724H36.4928C36.4181 54.7247 36.3446 54.7056 36.2797 54.6687C36.2148 54.6318 36.1608 54.5784 36.1232 54.5139C36.0855 54.4494 36.0656 54.3761 36.0655 54.3015C36.0653 54.2268 36.0849 54.1534 36.1222 54.0887L37.481 51.733C37.5045 51.6916 37.5124 51.6423 37.5028 51.5948C37.4933 51.5472 37.4672 51.5049 37.4296 51.4761C37.392 51.4474 37.3456 51.4342 37.2996 51.4393C37.2536 51.4444 37.2113 51.4673 37.181 51.5036Z" fill="#960018"/>
</svg>
