<svg width="47" height="43" viewBox="0 0 47 43" fill="none" xmlns="http://www.w3.org/2000/svg">
<g filter="url(#filter0_d_499_5041)">
<path fill-rule="evenodd" clip-rule="evenodd" d="M33.0832 35.801L44.2641 38.0376L41.779 27.9746C43.4153 25.2197 44.269 22.1431 44.2641 19.0188C44.2641 8.51465 34.8033 0 23.1321 0C11.4608 0 2.00003 8.51465 2.00003 19.0188C2.00003 29.5229 11.4608 38.0376 23.1321 38.0376C26.6032 38.042 30.0218 37.2737 33.0832 35.801ZM24.1886 18.1528C24.3832 17.8838 24.4936 17.5725 24.5079 17.2515C24.5104 17.1953 24.51 17.1392 24.5066 17.0833L24.5035 17.042C24.4996 16.9963 24.4937 16.9507 24.4858 16.9055L24.4814 16.8811C24.46 16.7683 24.4268 16.6577 24.3819 16.5503C24.3688 16.519 24.3524 16.4834 24.3373 16.4529C24.3167 16.4114 24.2942 16.3704 24.27 16.3301C24.0999 16.0479 23.8484 15.812 23.5418 15.6477C23.3453 15.5425 23.1308 15.469 22.9081 15.4297C22.7834 15.408 22.6563 15.3967 22.5283 15.3967C22.4948 15.3967 22.4614 15.3975 22.428 15.3989C22.4017 15.4001 22.3754 15.4019 22.3492 15.4041C22.3195 15.4065 22.29 15.4094 22.2606 15.4131C22.1826 15.4226 22.1053 15.4363 22.0293 15.4541C21.9443 15.4741 21.8608 15.499 21.7794 15.5291C21.6884 15.5625 21.5999 15.6021 21.5148 15.6477C21.2083 15.812 20.9568 16.0479 20.7867 16.3301C20.6167 16.6123 20.5344 16.9307 20.5488 17.2515C20.5631 17.5725 20.6735 17.8838 20.8681 18.1528L18.739 21.3469C18.6344 21.3384 18.5295 21.3374 18.4252 21.3438C18.3306 21.3496 18.2366 21.3616 18.1439 21.3796C18.1168 21.385 18.0899 21.3906 18.063 21.397L18.0297 21.4053C18.0026 21.4121 17.9756 21.4194 17.949 21.427C17.6943 21.502 17.4591 21.6221 17.2575 21.7808C17.056 21.9395 16.8923 22.1333 16.7764 22.3506C16.6605 22.5679 16.5945 22.8037 16.5829 23.0447C16.5712 23.2854 16.6139 23.5259 16.7083 23.7515C16.8026 23.9771 16.9469 24.1829 17.1324 24.3569C17.1793 24.4011 17.2287 24.4429 17.2802 24.4822C17.3325 24.522 17.387 24.5593 17.4435 24.5942C17.5511 24.6606 17.6661 24.7173 17.7867 24.7634C17.9047 24.8086 18.0269 24.8433 18.1518 24.8669C18.2876 24.8928 18.4265 24.906 18.5661 24.9058C18.6079 24.9058 18.6497 24.9045 18.6913 24.9021C18.7132 24.9009 18.735 24.8992 18.7567 24.8975L18.8015 24.8931C18.8306 24.8899 18.8595 24.8862 18.8884 24.8818L18.931 24.875C18.9444 24.8728 18.9577 24.8706 18.971 24.8679L19.0026 24.8621C19.2051 24.8208 19.4 24.7512 19.5798 24.6548C19.8865 24.4905 20.1382 24.2546 20.3081 23.9724C20.4489 23.7388 20.5294 23.4805 20.5449 23.2163C20.5462 23.1934 20.5471 23.1704 20.5475 23.1475L20.5474 23.0955L20.5461 23.0508C20.5385 22.8809 20.5039 22.7139 20.4443 22.5542C20.3911 22.4119 20.318 22.2759 20.2263 22.1492L22.3553 18.9551C22.4151 18.9602 22.475 18.9626 22.5349 18.9624C22.5904 18.9624 22.646 18.9597 22.7013 18.9551L24.8303 22.1492C24.6346 22.4194 24.5241 22.7327 24.5105 23.0552L24.5092 23.0955C24.5089 23.1157 24.5089 23.1362 24.5094 23.1565C24.51 23.1858 24.5114 23.2151 24.5136 23.2441C24.518 23.3018 24.5255 23.3589 24.536 23.4158C24.5724 23.6128 24.6456 23.8037 24.7532 23.9805C24.9258 24.2634 25.1803 24.4988 25.4898 24.6616C25.7994 24.8247 26.1522 24.9089 26.5108 24.9058C26.8694 24.9023 27.2202 24.8113 27.5258 24.6426C27.8315 24.4739 28.0806 24.2336 28.2466 23.9475C28.4124 23.6616 28.4889 23.3401 28.4678 23.0178C28.4468 22.6958 28.329 22.385 28.127 22.1182L31.6429 16.5813C32.09 16.6079 32.5339 16.4973 32.9022 16.2676C33.2705 16.0378 33.5412 15.7024 33.6705 15.3164C33.7996 14.9302 33.7795 14.5159 33.6134 14.1414C33.4472 13.7668 33.1449 13.4539 32.7559 13.2539C32.3666 13.054 31.9138 12.9788 31.4709 13.04C31.028 13.1018 30.6214 13.2966 30.3176 13.5928C30.0136 13.8892 29.8303 14.2698 29.7976 14.6719C29.7648 15.074 29.8845 15.4744 30.1371 15.8074L26.6213 21.3442C26.5203 21.3376 26.4186 21.3386 26.3176 21.3469L24.1886 18.1528ZM15.2642 26.0942H33.7547V28.4717H12.6227V9.45288H15.2642V26.0942Z" fill="#FEC400"/>
</g>
<defs>
<filter id="filter0_d_499_5041" x="0" y="0" width="46.2642" height="42.0376" filterUnits="userSpaceOnUse" color-interpolation-filters="sRGB">
<feFlood flood-opacity="0" result="BackgroundImageFix"/>
<feColorMatrix in="SourceAlpha" type="matrix" values="0 0 0 0 0 0 0 0 0 0 0 0 0 0 0 0 0 0 127 0" result="hardAlpha"/>
<feOffset dy="2"/>
<feGaussianBlur stdDeviation="1"/>
<feComposite in2="hardAlpha" operator="out"/>
<feColorMatrix type="matrix" values="0 0 0 0 0 0 0 0 0 0 0 0 0 0 0 0 0 0 0.25 0"/>
<feBlend mode="normal" in2="BackgroundImageFix" result="effect1_dropShadow_499_5041"/>
<feBlend mode="normal" in="SourceGraphic" in2="effect1_dropShadow_499_5041" result="shape"/>
</filter>
</defs>
</svg>
