<svg width="53" height="60" viewBox="0 0 53 60" fill="none" xmlns="http://www.w3.org/2000/svg">
<g filter="url(#filter0_d_499_5045)">
<path d="M24.6377 3.32715L24.6455 3.33203C28.6647 5.71126 31.7528 9.39529 33.3984 13.7744L34.4531 16.5791L36.0674 14.0537C36.6555 13.1333 37.0061 12.4704 37.2656 11.9053C40.4217 15.19 43.2423 18.5791 45.4658 22.5195V22.5205C47.7001 26.4835 49.5 31.0932 49.5 35.4492C49.5 40.3367 48.457 44.7109 45.6816 48.0469C43.2107 51.017 39.4924 53.019 34.3115 53.9229C35.1024 52.8179 35.739 51.5639 36.2256 50.2119V50.2109C37.515 46.621 36.9655 43.0068 35.0186 39.8359L35.0166 39.833C34.4839 38.9691 33.9063 38.1622 33.373 37.4141L33.3711 37.4111L32.5508 36.249C31.7709 35.1125 31.1218 34.0278 30.7041 32.7705V32.7695L29.6191 29.5117L29.0176 27.7031L27.4014 28.7139L24.4961 30.5303L24.4941 30.5312C18.5289 34.2702 15.1741 38.4827 14.1816 43.1992V43.2002C13.6551 45.7154 14.1588 48.5304 15.2773 50.998C15.6869 51.9015 16.1898 52.7795 16.7734 53.5996C11.4598 52.0594 6.65608 48.1634 4.58008 42.9375C2.0567 36.5852 3.6887 28.6308 12.4482 21.0205L12.4492 21.0215C17.2479 16.8542 21.7339 10.8186 22.8428 4.16406V4.16211L23.1299 2.42188L24.6377 3.32715Z" stroke="#FEC400" stroke-width="3" shape-rendering="crispEdges"/>
</g>
<defs>
<filter id="filter0_d_499_5045" x="0" y="0" width="53" height="60" filterUnits="userSpaceOnUse" color-interpolation-filters="sRGB">
<feFlood flood-opacity="0" result="BackgroundImageFix"/>
<feColorMatrix in="SourceAlpha" type="matrix" values="0 0 0 0 0 0 0 0 0 0 0 0 0 0 0 0 0 0 127 0" result="hardAlpha"/>
<feOffset dy="2"/>
<feGaussianBlur stdDeviation="1"/>
<feComposite in2="hardAlpha" operator="out"/>
<feColorMatrix type="matrix" values="0 0 0 0 0 0 0 0 0 0 0 0 0 0 0 0 0 0 0.25 0"/>
<feBlend mode="normal" in2="BackgroundImageFix" result="effect1_dropShadow_499_5045"/>
<feBlend mode="normal" in="SourceGraphic" in2="effect1_dropShadow_499_5045" result="shape"/>
</filter>
</defs>
</svg>
