<svg width="47" height="43" viewBox="0 0 47 43" fill="none" xmlns="http://www.w3.org/2000/svg">
<g filter="url(#filter0_d_499_5036)">
<path d="M23.1321 0C34.8033 0 44.2641 8.51369 44.2641 19.0165C44.2641 29.5193 34.8033 38.033 23.1321 38.033C19.7134 38.0371 16.3451 37.2917 13.3184 35.8613L4.2527 37.9855C3.94978 38.0565 3.63151 38.055 3.32942 37.9812C3.02733 37.9074 2.75191 37.7639 2.53047 37.5648C2.30902 37.3657 2.14923 37.118 2.06694 36.8462C1.98464 36.5744 1.9827 36.288 2.0613 36.0154L4.41964 27.8592C2.82594 25.1326 1.99539 22.0973 2.00002 19.0165C2.00002 8.51369 11.4608 0 23.1321 0ZM25.7778 20.9182H16.2642L16.0486 20.9315C15.6693 20.9784 15.3216 21.1474 15.07 21.4072C14.8184 21.6669 14.6797 21.9998 14.6797 22.3444C14.6797 22.689 14.8184 23.0219 15.07 23.2817C15.3216 23.5414 15.6693 23.7104 16.0486 23.7573L16.2642 23.7706H25.7778L25.9912 23.7573C26.3706 23.7104 26.7182 23.5414 26.9699 23.2817C27.2215 23.0219 27.3601 22.689 27.3601 22.3444C27.3601 21.9998 27.2215 21.6669 26.9699 21.4072C26.7182 21.1474 26.3706 20.9784 25.9912 20.9315L25.7778 20.9182ZM30 14.2624H16.2642L16.0486 14.2757C15.6693 14.3227 15.3216 14.4916 15.07 14.7514C14.8184 15.0111 14.6797 15.344 14.6797 15.6886C14.6797 16.0332 14.8184 16.3661 15.07 16.6259C15.3216 16.8856 15.6693 17.0546 16.0486 17.1016L16.2642 17.1149H30L30.2155 17.1016C30.5949 17.0546 30.9425 16.8856 31.1942 16.6259C31.4458 16.3661 31.5844 16.0332 31.5844 15.6886C31.5844 15.344 31.4458 15.0111 31.1942 14.7514C30.9425 14.4916 30.5949 14.3227 30.2155 14.2757L30 14.2624Z" fill="#FEC400"/>
</g>
<defs>
<filter id="filter0_d_499_5036" x="0" y="0" width="46.2642" height="42.0377" filterUnits="userSpaceOnUse" color-interpolation-filters="sRGB">
<feFlood flood-opacity="0" result="BackgroundImageFix"/>
<feColorMatrix in="SourceAlpha" type="matrix" values="0 0 0 0 0 0 0 0 0 0 0 0 0 0 0 0 0 0 127 0" result="hardAlpha"/>
<feOffset dy="2"/>
<feGaussianBlur stdDeviation="1"/>
<feComposite in2="hardAlpha" operator="out"/>
<feColorMatrix type="matrix" values="0 0 0 0 0 0 0 0 0 0 0 0 0 0 0 0 0 0 0.25 0"/>
<feBlend mode="normal" in2="BackgroundImageFix" result="effect1_dropShadow_499_5036"/>
<feBlend mode="normal" in="SourceGraphic" in2="effect1_dropShadow_499_5036" result="shape"/>
</filter>
</defs>
</svg>
